<svg xmlns="http://www.w3.org/2000/svg" xmlns:xlink="http://www.w3.org/1999/xlink" width="500" zoomAndPan="magnify" viewBox="0 0 375 71.249999" height="95" preserveAspectRatio="xMidYMid meet" version="1.0"><defs><g/><clipPath id="1d4aa9ba3e"><path d="M 162.117188 18.28125 L 202.871094 18.28125 L 202.871094 59.96875 L 162.117188 59.96875 Z M 162.117188 18.28125 " clip-rule="nonzero"/></clipPath></defs><g fill="#ffffff" fill-opacity="1"><g transform="translate(54.019369, 53.796596)"><g><path d="M 3.390625 0 L 2.5 -31 L 8.421875 -31 L 9.3125 0 Z M 3.390625 0 "/></g></g></g><g fill="#ffffff" fill-opacity="1"><g transform="translate(65.577337, 53.796596)"><g><path d="M 2.40625 9.734375 L 1.1875 3.8125 C 3.726562 3.5 5.863281 3.09375 7.59375 2.59375 C 9.332031 2.101562 10.679688 1.3125 11.640625 0.21875 L 10.5 0.21875 C 7.84375 0.21875 5.757812 -0.265625 4.25 -1.234375 C 2.738281 -2.210938 1.984375 -3.890625 1.984375 -6.265625 C 1.984375 -7.535156 2.203125 -8.804688 2.640625 -10.078125 C 3.078125 -11.347656 3.691406 -12.507812 4.484375 -13.5625 C 5.273438 -14.625 6.195312 -15.472656 7.25 -16.109375 C 8.3125 -16.742188 9.46875 -17.0625 10.71875 -17.0625 C 12.382812 -17.0625 13.859375 -16.539062 15.140625 -15.5 C 16.421875 -14.457031 17.421875 -13.070312 18.140625 -11.34375 C 18.859375 -9.625 19.21875 -7.75 19.21875 -5.71875 L 22.5625 -5.71875 C 23.613281 -5.71875 24.378906 -5.441406 24.859375 -4.890625 C 25.335938 -4.335938 25.578125 -3.65625 25.578125 -2.84375 C 25.578125 -1.96875 25.28125 -1.238281 24.6875 -0.65625 C 24.09375 -0.0703125 23.242188 0.21875 22.140625 0.21875 L 18.25 0.21875 C 17.144531 3.144531 15.226562 5.40625 12.5 7 C 9.78125 8.601562 6.414062 9.515625 2.40625 9.734375 Z M 7.828125 -7.28125 C 7.828125 -6.96875 7.929688 -6.648438 8.140625 -6.328125 C 8.359375 -6.003906 8.847656 -5.75 9.609375 -5.5625 C 10.367188 -5.382812 11.582031 -5.363281 13.25 -5.5 C 13.226562 -7.132812 12.960938 -8.425781 12.453125 -9.375 C 11.941406 -10.320312 11.273438 -10.796875 10.453125 -10.796875 C 9.859375 -10.796875 9.363281 -10.585938 8.96875 -10.171875 C 8.582031 -9.765625 8.296875 -9.285156 8.109375 -8.734375 C 7.921875 -8.191406 7.828125 -7.707031 7.828125 -7.28125 Z M 7.828125 -7.28125 "/></g></g></g><g fill="#ffffff" fill-opacity="1"><g transform="translate(87.761858, 53.796596)"><g><path d="M 0 0.21875 L 0.421875 -5.71875 C 1.722656 -5.71875 2.65625 -5.847656 3.21875 -6.109375 C 3.78125 -6.378906 4.117188 -6.890625 4.234375 -7.640625 C 4.347656 -8.390625 4.375 -9.484375 4.3125 -10.921875 L 3.5625 -31 L 9.53125 -31 L 10.375 -10.5 C 10.425781 -8.863281 10.359375 -7.390625 10.171875 -6.078125 C 9.992188 -4.765625 9.554688 -3.640625 8.859375 -2.703125 C 8.171875 -1.773438 7.113281 -1.054688 5.6875 -0.546875 C 4.269531 -0.0351562 2.375 0.21875 0 0.21875 Z M 0 0.21875 "/></g></g></g><g fill="#ffffff" fill-opacity="1"><g transform="translate(100.335901, 53.796596)"><g><path d="M 2.40625 9.734375 L 1.1875 3.8125 C 3.726562 3.5 5.863281 3.09375 7.59375 2.59375 C 9.332031 2.101562 10.679688 1.3125 11.640625 0.21875 L 10.5 0.21875 C 7.84375 0.21875 5.757812 -0.265625 4.25 -1.234375 C 2.738281 -2.210938 1.984375 -3.890625 1.984375 -6.265625 C 1.984375 -7.535156 2.203125 -8.804688 2.640625 -10.078125 C 3.078125 -11.347656 3.691406 -12.507812 4.484375 -13.5625 C 5.273438 -14.625 6.195312 -15.472656 7.25 -16.109375 C 8.3125 -16.742188 9.46875 -17.0625 10.71875 -17.0625 C 12.382812 -17.0625 13.859375 -16.539062 15.140625 -15.5 C 16.421875 -14.457031 17.421875 -13.070312 18.140625 -11.34375 C 18.859375 -9.625 19.21875 -7.75 19.21875 -5.71875 L 22.5625 -5.71875 C 23.613281 -5.71875 24.378906 -5.441406 24.859375 -4.890625 C 25.335938 -4.335938 25.578125 -3.65625 25.578125 -2.84375 C 25.578125 -1.96875 25.28125 -1.238281 24.6875 -0.65625 C 24.09375 -0.0703125 23.242188 0.21875 22.140625 0.21875 L 18.25 0.21875 C 17.144531 3.144531 15.226562 5.40625 12.5 7 C 9.78125 8.601562 6.414062 9.515625 2.40625 9.734375 Z M 7.828125 -7.28125 C 7.828125 -6.96875 7.929688 -6.648438 8.140625 -6.328125 C 8.359375 -6.003906 8.847656 -5.75 9.609375 -5.5625 C 10.367188 -5.382812 11.582031 -5.363281 13.25 -5.5 C 13.226562 -7.132812 12.960938 -8.425781 12.453125 -9.375 C 11.941406 -10.320312 11.273438 -10.796875 10.453125 -10.796875 C 9.859375 -10.796875 9.363281 -10.585938 8.96875 -10.171875 C 8.582031 -9.765625 8.296875 -9.285156 8.109375 -8.734375 C 7.921875 -8.191406 7.828125 -7.707031 7.828125 -7.28125 Z M 7.828125 -7.28125 "/></g></g></g><g fill="#ffffff" fill-opacity="1"><g transform="translate(122.520422, 53.796596)"><g><path d="M 0 0.21875 L 0.421875 -5.71875 C 2.117188 -5.71875 3.414062 -5.800781 4.3125 -5.96875 C 5.21875 -6.132812 5.847656 -6.453125 6.203125 -6.921875 C 6.554688 -7.390625 6.734375 -8.0625 6.734375 -8.9375 C 6.734375 -9.726562 6.625 -10.671875 6.40625 -11.765625 C 6.195312 -12.867188 5.921875 -14.003906 5.578125 -15.171875 C 5.242188 -16.347656 4.910156 -17.445312 4.578125 -18.46875 L 10.421875 -20.078125 C 10.753906 -19.109375 11.097656 -17.988281 11.453125 -16.71875 C 11.804688 -15.457031 12.09375 -14.144531 12.3125 -12.78125 C 12.539062 -11.425781 12.65625 -10.144531 12.65625 -8.9375 C 12.65625 -7.019531 12.34375 -5.457031 11.71875 -4.25 C 11.101562 -3.050781 10.238281 -2.128906 9.125 -1.484375 C 8.007812 -0.835938 6.675781 -0.390625 5.125 -0.140625 C 3.570312 0.0976562 1.863281 0.21875 0 0.21875 Z M 4.15625 -23.546875 C 3.332031 -23.546875 2.628906 -23.832031 2.046875 -24.40625 C 1.472656 -24.988281 1.1875 -25.675781 1.1875 -26.46875 C 1.1875 -27.28125 1.472656 -27.984375 2.046875 -28.578125 C 2.628906 -29.171875 3.332031 -29.46875 4.15625 -29.46875 C 4.9375 -29.46875 5.609375 -29.171875 6.171875 -28.578125 C 6.742188 -27.984375 7.03125 -27.28125 7.03125 -26.46875 C 7.03125 -25.675781 6.742188 -24.988281 6.171875 -24.40625 C 5.609375 -23.832031 4.9375 -23.546875 4.15625 -23.546875 Z M 11.46875 -23.5 C 10.65625 -23.5 9.957031 -23.78125 9.375 -24.34375 C 8.800781 -24.90625 8.515625 -25.597656 8.515625 -26.421875 C 8.515625 -27.234375 8.800781 -27.9375 9.375 -28.53125 C 9.957031 -29.125 10.65625 -29.421875 11.46875 -29.421875 C 12.257812 -29.421875 12.9375 -29.125 13.5 -28.53125 C 14.070312 -27.9375 14.359375 -27.234375 14.359375 -26.421875 C 14.359375 -25.597656 14.070312 -24.90625 13.5 -24.34375 C 12.9375 -23.78125 12.257812 -23.5 11.46875 -23.5 Z M 11.46875 -23.5 "/></g></g></g><g fill="#ffffff" fill-opacity="1"><g transform="translate(227.281558, 53.796596)"><g><path d="M 3.390625 0 L 2.5 -31 L 8.421875 -31 L 9.3125 0 Z M 3.390625 0 "/></g></g></g><g fill="#ffffff" fill-opacity="1"><g transform="translate(243.666347, 56.125303)"><g><path d="M 5.46875 -26.171875 C 4.113281 -26.171875 3.082031 -26.585938 2.375 -27.421875 C 1.664062 -28.253906 1.3125 -29.234375 1.3125 -30.359375 C 1.3125 -31.679688 1.71875 -32.835938 2.53125 -33.828125 C 3.351562 -34.816406 4.398438 -35.3125 5.671875 -35.3125 C 6.460938 -35.3125 7.160156 -35.082031 7.765625 -34.625 C 8.378906 -34.175781 8.859375 -33.59375 9.203125 -32.875 C 9.554688 -32.15625 9.734375 -31.390625 9.734375 -30.578125 C 9.734375 -29.328125 9.335938 -28.28125 8.546875 -27.4375 C 7.765625 -26.59375 6.738281 -26.171875 5.46875 -26.171875 Z M 5.421875 -28.875 C 5.898438 -28.875 6.316406 -29.03125 6.671875 -29.34375 C 7.023438 -29.65625 7.203125 -30.066406 7.203125 -30.578125 C 7.203125 -31.109375 7.015625 -31.550781 6.640625 -31.90625 C 6.273438 -32.257812 5.882812 -32.4375 5.46875 -32.4375 C 4.925781 -32.4375 4.503906 -32.25 4.203125 -31.875 C 3.910156 -31.507812 3.765625 -31.085938 3.765625 -30.609375 C 3.765625 -30.109375 3.921875 -29.691406 4.234375 -29.359375 C 4.546875 -29.035156 4.941406 -28.875 5.421875 -28.875 Z M 5.421875 -28.875 "/></g></g></g><g fill="#ffffff" fill-opacity="1"><g transform="translate(238.839527, 53.796596)"><g><path d="M 2.40625 9.734375 L 1.1875 3.8125 C 3.726562 3.5 5.863281 3.09375 7.59375 2.59375 C 9.332031 2.101562 10.679688 1.3125 11.640625 0.21875 L 10.5 0.21875 C 7.84375 0.21875 5.757812 -0.265625 4.25 -1.234375 C 2.738281 -2.210938 1.984375 -3.890625 1.984375 -6.265625 C 1.984375 -7.535156 2.203125 -8.804688 2.640625 -10.078125 C 3.078125 -11.347656 3.691406 -12.507812 4.484375 -13.5625 C 5.273438 -14.625 6.195312 -15.472656 7.25 -16.109375 C 8.3125 -16.742188 9.46875 -17.0625 10.71875 -17.0625 C 12.382812 -17.0625 13.859375 -16.539062 15.140625 -15.5 C 16.421875 -14.457031 17.421875 -13.070312 18.140625 -11.34375 C 18.859375 -9.625 19.21875 -7.75 19.21875 -5.71875 L 22.5625 -5.71875 C 23.613281 -5.71875 24.378906 -5.441406 24.859375 -4.890625 C 25.335938 -4.335938 25.578125 -3.65625 25.578125 -2.84375 C 25.578125 -1.96875 25.28125 -1.238281 24.6875 -0.65625 C 24.09375 -0.0703125 23.242188 0.21875 22.140625 0.21875 L 18.25 0.21875 C 17.144531 3.144531 15.226562 5.40625 12.5 7 C 9.78125 8.601562 6.414062 9.515625 2.40625 9.734375 Z M 7.828125 -7.28125 C 7.828125 -6.96875 7.929688 -6.648438 8.140625 -6.328125 C 8.359375 -6.003906 8.847656 -5.75 9.609375 -5.5625 C 10.367188 -5.382812 11.582031 -5.363281 13.25 -5.5 C 13.226562 -7.132812 12.960938 -8.425781 12.453125 -9.375 C 11.941406 -10.320312 11.273438 -10.796875 10.453125 -10.796875 C 9.859375 -10.796875 9.363281 -10.585938 8.96875 -10.171875 C 8.582031 -9.765625 8.296875 -9.285156 8.109375 -8.734375 C 7.921875 -8.191406 7.828125 -7.707031 7.828125 -7.28125 Z M 7.828125 -7.28125 "/></g></g></g><g fill="#ffffff" fill-opacity="1"><g transform="translate(260.727671, 42.195314)"><g><path d="M 3.765625 -25.03125 C 2.722656 -25.03125 2.015625 -25.390625 1.640625 -26.109375 C 1.273438 -26.828125 1.09375 -27.640625 1.09375 -28.546875 C 1.09375 -28.847656 1.113281 -29.175781 1.15625 -29.53125 C 1.207031 -29.882812 1.273438 -30.285156 1.359375 -30.734375 L 3.890625 -31.328125 C 3.722656 -30.367188 3.640625 -29.566406 3.640625 -28.921875 C 3.640625 -28.160156 3.910156 -27.78125 4.453125 -27.78125 C 4.785156 -27.78125 5.054688 -27.976562 5.265625 -28.375 C 5.484375 -28.769531 5.59375 -29.53125 5.59375 -30.65625 L 5.59375 -31.921875 L 8.046875 -32.6875 L 8.046875 -30.109375 C 8.046875 -29.398438 8.3125 -29.046875 8.84375 -29.046875 C 9.238281 -29.046875 9.515625 -29.164062 9.671875 -29.40625 C 9.828125 -29.644531 9.90625 -29.9375 9.90625 -30.28125 C 9.90625 -30.757812 9.847656 -31.242188 9.734375 -31.734375 C 9.617188 -32.234375 9.460938 -32.722656 9.265625 -33.203125 L 11.609375 -33.796875 C 11.890625 -33.222656 12.117188 -32.597656 12.296875 -31.921875 C 12.484375 -31.242188 12.578125 -30.625 12.578125 -30.0625 C 12.578125 -29.132812 12.304688 -28.296875 11.765625 -27.546875 C 11.234375 -26.796875 10.359375 -26.421875 9.140625 -26.421875 C 8.347656 -26.421875 7.6875 -26.675781 7.15625 -27.1875 C 6.90625 -26.53125 6.484375 -26.003906 5.890625 -25.609375 C 5.296875 -25.222656 4.585938 -25.03125 3.765625 -25.03125 Z M 1.34375 -34.296875 L 1.34375 -37.265625 L 11.34375 -40.21875 L 11.34375 -37.171875 Z M 1.34375 -34.296875 "/></g></g></g><g fill="#ffffff" fill-opacity="1"><g transform="translate(261.024048, 53.796596)"><g><path d="M 0 0.21875 L 0.421875 -5.71875 C 1.722656 -5.71875 2.65625 -5.847656 3.21875 -6.109375 C 3.78125 -6.378906 4.117188 -6.890625 4.234375 -7.640625 C 4.347656 -8.390625 4.375 -9.484375 4.3125 -10.921875 L 3.5625 -31 L 9.53125 -31 L 10.375 -10.5 C 10.425781 -8.863281 10.359375 -7.390625 10.171875 -6.078125 C 9.992188 -4.765625 9.554688 -3.640625 8.859375 -2.703125 C 8.171875 -1.773438 7.113281 -1.054688 5.6875 -0.546875 C 4.269531 -0.0351562 2.375 0.21875 0 0.21875 Z M 0 0.21875 "/></g></g></g><g fill="#ffffff" fill-opacity="1"><g transform="translate(277.45106, 56.125303)"><g><path d="M 1.6875 -24.984375 L 1.6875 -27.953125 L 11.6875 -30.90625 L 11.6875 -27.859375 Z M 1.6875 -24.984375 "/></g></g></g><g fill="#ffffff" fill-opacity="1"><g transform="translate(273.598091, 53.796596)"><g><path d="M 2.40625 9.734375 L 1.1875 3.8125 C 3.726562 3.5 5.863281 3.09375 7.59375 2.59375 C 9.332031 2.101562 10.679688 1.3125 11.640625 0.21875 L 10.5 0.21875 C 7.84375 0.21875 5.757812 -0.265625 4.25 -1.234375 C 2.738281 -2.210938 1.984375 -3.890625 1.984375 -6.265625 C 1.984375 -7.535156 2.203125 -8.804688 2.640625 -10.078125 C 3.078125 -11.347656 3.691406 -12.507812 4.484375 -13.5625 C 5.273438 -14.625 6.195312 -15.472656 7.25 -16.109375 C 8.3125 -16.742188 9.46875 -17.0625 10.71875 -17.0625 C 12.382812 -17.0625 13.859375 -16.539062 15.140625 -15.5 C 16.421875 -14.457031 17.421875 -13.070312 18.140625 -11.34375 C 18.859375 -9.625 19.21875 -7.75 19.21875 -5.71875 L 22.5625 -5.71875 C 23.613281 -5.71875 24.378906 -5.441406 24.859375 -4.890625 C 25.335938 -4.335938 25.578125 -3.65625 25.578125 -2.84375 C 25.578125 -1.96875 25.28125 -1.238281 24.6875 -0.65625 C 24.09375 -0.0703125 23.242188 0.21875 22.140625 0.21875 L 18.25 0.21875 C 17.144531 3.144531 15.226562 5.40625 12.5 7 C 9.78125 8.601562 6.414062 9.515625 2.40625 9.734375 Z M 7.828125 -7.28125 C 7.828125 -6.96875 7.929688 -6.648438 8.140625 -6.328125 C 8.359375 -6.003906 8.847656 -5.75 9.609375 -5.5625 C 10.367188 -5.382812 11.582031 -5.363281 13.25 -5.5 C 13.226562 -7.132812 12.960938 -8.425781 12.453125 -9.375 C 11.941406 -10.320312 11.273438 -10.796875 10.453125 -10.796875 C 9.859375 -10.796875 9.363281 -10.585938 8.96875 -10.171875 C 8.582031 -9.765625 8.296875 -9.285156 8.109375 -8.734375 C 7.921875 -8.191406 7.828125 -7.707031 7.828125 -7.28125 Z M 7.828125 -7.28125 "/></g></g></g><g fill="#ffffff" fill-opacity="1"><g transform="translate(296.671775, 43.719577)"><g><path d="M 1.6875 -24.984375 L 1.6875 -27.953125 L 11.6875 -30.90625 L 11.6875 -27.859375 Z M 1.6875 -24.984375 "/></g></g></g><g fill="#ffffff" fill-opacity="1"><g transform="translate(295.782612, 53.796596)"><g><path d="M 0 0.21875 L 0.421875 -5.71875 C 2.117188 -5.71875 3.414062 -5.800781 4.3125 -5.96875 C 5.21875 -6.132812 5.847656 -6.453125 6.203125 -6.921875 C 6.554688 -7.390625 6.734375 -8.0625 6.734375 -8.9375 C 6.734375 -9.726562 6.625 -10.671875 6.40625 -11.765625 C 6.195312 -12.867188 5.921875 -14.003906 5.578125 -15.171875 C 5.242188 -16.347656 4.910156 -17.445312 4.578125 -18.46875 L 10.421875 -20.078125 C 10.753906 -19.109375 11.097656 -17.988281 11.453125 -16.71875 C 11.804688 -15.457031 12.09375 -14.144531 12.3125 -12.78125 C 12.539062 -11.425781 12.65625 -10.144531 12.65625 -8.9375 C 12.65625 -7.019531 12.34375 -5.457031 11.71875 -4.25 C 11.101562 -3.050781 10.238281 -2.128906 9.125 -1.484375 C 8.007812 -0.835938 6.675781 -0.390625 5.125 -0.140625 C 3.570312 0.0976562 1.863281 0.21875 0 0.21875 Z M 4.15625 -23.546875 C 3.332031 -23.546875 2.628906 -23.832031 2.046875 -24.40625 C 1.472656 -24.988281 1.1875 -25.675781 1.1875 -26.46875 C 1.1875 -27.28125 1.472656 -27.984375 2.046875 -28.578125 C 2.628906 -29.171875 3.332031 -29.46875 4.15625 -29.46875 C 4.9375 -29.46875 5.609375 -29.171875 6.171875 -28.578125 C 6.742188 -27.984375 7.03125 -27.28125 7.03125 -26.46875 C 7.03125 -25.675781 6.742188 -24.988281 6.171875 -24.40625 C 5.609375 -23.832031 4.9375 -23.546875 4.15625 -23.546875 Z M 11.46875 -23.5 C 10.65625 -23.5 9.957031 -23.78125 9.375 -24.34375 C 8.800781 -24.90625 8.515625 -25.597656 8.515625 -26.421875 C 8.515625 -27.234375 8.800781 -27.9375 9.375 -28.53125 C 9.957031 -29.125 10.65625 -29.421875 11.46875 -29.421875 C 12.257812 -29.421875 12.9375 -29.125 13.5 -28.53125 C 14.070312 -27.9375 14.359375 -27.234375 14.359375 -26.421875 C 14.359375 -25.597656 14.070312 -24.90625 13.5 -24.34375 C 12.9375 -23.78125 12.257812 -23.5 11.46875 -23.5 Z M 11.46875 -23.5 "/></g></g></g><g fill="#ffffff" fill-opacity="1"><g transform="translate(310.993491, 53.796596)"><g/></g></g><g clip-path="url(#1d4aa9ba3e)"><path fill="#ffffff" d="M 162.296875 38.75 C 162.117188 38.9375 162.117188 39.21875 162.296875 39.40625 L 181.578125 59.699219 C 181.671875 59.792969 181.761719 59.839844 181.898438 59.839844 L 184.792969 59.933594 C 184.929688 59.933594 185.019531 59.886719 185.109375 59.792969 C 185.199219 59.699219 185.246094 59.605469 185.246094 59.464844 L 185.246094 51.515625 C 185.246094 51.375 185.199219 51.28125 185.109375 51.1875 L 173.433594 39.03125 L 185.199219 26.96875 C 185.292969 26.875 185.335938 26.78125 185.335938 26.640625 L 185.335938 20.703125 C 185.335938 20.5625 185.246094 20.375 185.109375 20.328125 L 182.214844 18.410156 C 182.078125 18.316406 181.941406 18.316406 181.804688 18.363281 C 181.761719 18.363281 181.671875 18.410156 181.625 18.457031 Z M 203.351562 59.933594 L 200.410156 59.839844 C 200.273438 59.839844 200.183594 59.792969 200.089844 59.699219 L 180.808594 39.40625 C 180.628906 39.21875 180.628906 38.9375 180.808594 38.75 L 200.089844 18.457031 C 200.136719 18.410156 200.183594 18.363281 200.273438 18.363281 C 200.410156 18.316406 200.589844 18.316406 200.679688 18.410156 L 203.578125 20.328125 C 203.710938 20.375 203.804688 20.5625 203.804688 20.703125 L 203.804688 26.640625 C 203.804688 26.78125 203.757812 26.875 203.667969 26.96875 L 191.988281 39.03125 L 203.667969 51.1875 C 203.757812 51.28125 203.804688 51.375 203.804688 51.515625 L 203.804688 59.464844 C 203.804688 59.605469 203.757812 59.699219 203.667969 59.792969 C 203.578125 59.886719 203.484375 59.933594 203.351562 59.933594 Z M 203.351562 59.933594 " fill-opacity="1" fill-rule="nonzero"/></g></svg>