<svg xmlns="http://www.w3.org/2000/svg" xmlns:xlink="http://www.w3.org/1999/xlink" width="500" zoomAndPan="magnify" viewBox="0 0 375 71.249999" height="95" preserveAspectRatio="xMidYMid meet" version="1.0"><defs><g/><clipPath id="e7e9ab245a"><path d="M 145.75 16.148438 L 183.921875 16.148438 L 183.921875 54.980469 L 145.75 54.980469 Z M 145.75 16.148438 " clip-rule="nonzero"/></clipPath></defs><g fill="#ffffff" fill-opacity="1"><g transform="translate(205.87164, 49.956854)"><g><path d="M 12.421875 0.203125 C 9.992188 0.203125 8.117188 -0.046875 6.796875 -0.546875 C 5.484375 -1.046875 4.554688 -1.820312 4.015625 -2.875 C 3.484375 -3.9375 3.191406 -5.28125 3.140625 -6.90625 L 2.3125 -28.703125 L 7.796875 -28.703125 L 8.625 -9.53125 C 8.675781 -8.320312 8.804688 -7.414062 9.015625 -6.8125 C 9.222656 -6.21875 9.613281 -5.816406 10.1875 -5.609375 C 10.769531 -5.398438 11.644531 -5.296875 12.8125 -5.296875 C 13.78125 -5.296875 14.488281 -5.039062 14.9375 -4.53125 C 15.382812 -4.019531 15.609375 -3.382812 15.609375 -2.625 C 15.609375 -1.8125 15.332031 -1.132812 14.78125 -0.59375 C 14.226562 -0.0625 13.441406 0.203125 12.421875 0.203125 Z M 12.421875 0.203125 "/></g></g></g><g fill="#ffffff" fill-opacity="1"><g transform="translate(218.338472, 49.956854)"><g><path d="M 0 0.203125 L 0.390625 -5.296875 L 11.6875 -5.296875 C 12.675781 -5.296875 13.382812 -5.039062 13.8125 -4.53125 C 14.25 -4.019531 14.46875 -3.382812 14.46875 -2.625 C 14.46875 -1.8125 14.191406 -1.132812 13.640625 -0.59375 C 13.085938 -0.0625 12.304688 0.203125 11.296875 0.203125 Z M 0 0.203125 "/></g></g></g><g fill="#ffffff" fill-opacity="1"><g transform="translate(229.668394, 49.956854)"><g><path d="M 0 0.203125 L 0.390625 -5.296875 L 11.6875 -5.296875 C 12.675781 -5.296875 13.382812 -5.039062 13.8125 -4.53125 C 14.25 -4.019531 14.46875 -3.382812 14.46875 -2.625 C 14.46875 -1.8125 14.191406 -1.132812 13.640625 -0.59375 C 13.085938 -0.0625 12.304688 0.203125 11.296875 0.203125 Z M 0 0.203125 "/></g></g></g><g fill="#ffffff" fill-opacity="1"><g transform="translate(240.998316, 49.956854)"><g><path d="M 0 0.203125 L 0.390625 -5.296875 C 1.378906 -5.296875 2.164062 -5.382812 2.75 -5.5625 C 3.34375 -5.75 3.816406 -6.125 4.171875 -6.6875 C 4.523438 -7.25 4.828125 -8.078125 5.078125 -9.171875 C 5.328125 -10.265625 5.582031 -11.726562 5.84375 -13.5625 L 10.984375 -12.703125 C 10.867188 -12.097656 10.742188 -11.378906 10.609375 -10.546875 C 10.484375 -9.710938 10.421875 -8.941406 10.421875 -8.234375 C 10.421875 -7.609375 10.554688 -7.070312 10.828125 -6.625 C 11.109375 -6.175781 11.609375 -5.84375 12.328125 -5.625 C 13.046875 -5.40625 14.085938 -5.296875 15.453125 -5.296875 C 16.441406 -5.296875 17.144531 -5.039062 17.5625 -4.53125 C 17.976562 -4.019531 18.1875 -3.382812 18.1875 -2.625 C 18.1875 -1.8125 17.914062 -1.132812 17.375 -0.59375 C 16.84375 -0.0625 16.066406 0.203125 15.046875 0.203125 C 12.960938 0.203125 11.335938 -0.0195312 10.171875 -0.46875 C 9.003906 -0.914062 8.175781 -1.710938 7.6875 -2.859375 C 6.71875 -1.503906 5.570312 -0.65625 4.25 -0.3125 C 2.9375 0.03125 1.519531 0.203125 0 0.203125 Z M 8.390625 -17.171875 C 7.578125 -17.171875 6.890625 -17.441406 6.328125 -17.984375 C 5.765625 -18.535156 5.484375 -19.21875 5.484375 -20.03125 C 5.484375 -20.84375 5.765625 -21.535156 6.328125 -22.109375 C 6.890625 -22.679688 7.578125 -22.96875 8.390625 -22.96875 C 9.171875 -22.96875 9.84375 -22.679688 10.40625 -22.109375 C 10.96875 -21.535156 11.25 -20.84375 11.25 -20.03125 C 11.25 -19.21875 10.96875 -18.535156 10.40625 -17.984375 C 9.84375 -17.441406 9.171875 -17.171875 8.390625 -17.171875 Z M 8.390625 -17.171875 "/></g></g></g><g fill="#ffffff" fill-opacity="1"><g transform="translate(256.052606, 49.956854)"><g><path d="M 0 0.203125 L 0.390625 -5.296875 L 11.6875 -5.296875 C 12.675781 -5.296875 13.382812 -5.039062 13.8125 -4.53125 C 14.25 -4.019531 14.46875 -3.382812 14.46875 -2.625 C 14.46875 -1.8125 14.191406 -1.132812 13.640625 -0.59375 C 13.085938 -0.0625 12.304688 0.203125 11.296875 0.203125 Z M 0 0.203125 "/></g></g></g><g fill="#ffffff" fill-opacity="1"><g transform="translate(267.382528, 49.956854)"><g><path d="M 0 0.203125 L 0.390625 -5.296875 L 11.6875 -5.296875 C 12.675781 -5.296875 13.382812 -5.039062 13.8125 -4.53125 C 14.25 -4.019531 14.46875 -3.382812 14.46875 -2.625 C 14.46875 -1.8125 14.191406 -1.132812 13.640625 -0.59375 C 13.085938 -0.0625 12.304688 0.203125 11.296875 0.203125 Z M 0 0.203125 "/></g></g></g><g fill="#ffffff" fill-opacity="1"><g transform="translate(278.712451, 49.956854)"><g><path d="M 15.953125 0.3125 C 14.773438 0.3125 13.566406 0.171875 12.328125 -0.109375 C 11.085938 -0.398438 9.90625 -0.832031 8.78125 -1.40625 C 7.476562 -0.863281 6.082031 -0.457031 4.59375 -0.1875 C 3.101562 0.0703125 1.570312 0.203125 0 0.203125 L 0.390625 -5.296875 C 1.097656 -5.296875 1.765625 -5.300781 2.390625 -5.3125 C 3.015625 -5.320312 3.585938 -5.351562 4.109375 -5.40625 C 3.671875 -6.113281 3.320312 -6.882812 3.0625 -7.71875 C 2.800781 -8.5625 2.671875 -9.460938 2.671875 -10.421875 C 2.671875 -11.753906 2.988281 -12.976562 3.625 -14.09375 C 4.269531 -15.207031 5.21875 -16.007812 6.46875 -16.5 C 5.96875 -16.84375 5.445312 -17.195312 4.90625 -17.5625 L 7.921875 -21.84375 C 10.691406 -19.875 13.007812 -18.15625 14.875 -16.6875 C 16.75 -15.226562 18.257812 -13.953125 19.40625 -12.859375 C 20.550781 -11.765625 21.429688 -10.804688 22.046875 -9.984375 C 22.660156 -9.160156 23.070312 -8.398438 23.28125 -7.703125 C 23.488281 -7.015625 23.59375 -6.34375 23.59375 -5.6875 C 23.59375 -3.800781 22.925781 -2.328125 21.59375 -1.265625 C 20.269531 -0.210938 18.390625 0.3125 15.953125 0.3125 Z M 7.609375 -10.625 C 7.609375 -9.914062 7.753906 -9.257812 8.046875 -8.65625 C 8.347656 -8.0625 8.75 -7.53125 9.25 -7.0625 C 9.851562 -7.582031 10.320312 -8.164062 10.65625 -8.8125 C 11 -9.46875 11.171875 -10.109375 11.171875 -10.734375 C 11.171875 -11.335938 11.03125 -11.898438 10.75 -12.421875 C 10.476562 -12.953125 10.054688 -13.21875 9.484375 -13.21875 C 8.859375 -13.21875 8.390625 -12.945312 8.078125 -12.40625 C 7.765625 -11.875 7.609375 -11.28125 7.609375 -10.625 Z M 18.1875 -6.234375 C 18.1875 -6.648438 18.046875 -7.101562 17.765625 -7.59375 C 17.492188 -8.09375 16.828125 -8.816406 15.765625 -9.765625 C 15.710938 -8.816406 15.515625 -7.941406 15.171875 -7.140625 C 14.828125 -6.347656 14.394531 -5.628906 13.875 -4.984375 C 14.550781 -4.847656 15.242188 -4.78125 15.953125 -4.78125 C 16.765625 -4.78125 17.335938 -4.910156 17.671875 -5.171875 C 18.015625 -5.429688 18.1875 -5.785156 18.1875 -6.234375 Z M 18.1875 -6.234375 "/></g></g></g><g fill="#ffffff" fill-opacity="1"><g transform="translate(71.147176, 49.956854)"><g><path d="M 12.421875 0.203125 C 9.992188 0.203125 8.117188 -0.046875 6.796875 -0.546875 C 5.484375 -1.046875 4.554688 -1.820312 4.015625 -2.875 C 3.484375 -3.9375 3.191406 -5.28125 3.140625 -6.90625 L 2.3125 -28.703125 L 7.796875 -28.703125 L 8.625 -9.53125 C 8.675781 -8.320312 8.804688 -7.414062 9.015625 -6.8125 C 9.222656 -6.21875 9.613281 -5.816406 10.1875 -5.609375 C 10.769531 -5.398438 11.644531 -5.296875 12.8125 -5.296875 C 13.78125 -5.296875 14.488281 -5.039062 14.9375 -4.53125 C 15.382812 -4.019531 15.609375 -3.382812 15.609375 -2.625 C 15.609375 -1.8125 15.332031 -1.132812 14.78125 -0.59375 C 14.226562 -0.0625 13.441406 0.203125 12.421875 0.203125 Z M 12.421875 0.203125 "/></g></g></g><g fill="#ffffff" fill-opacity="1"><g transform="translate(83.614008, 49.956854)"><g><path d="M 0 0.203125 L 0.390625 -5.296875 C 1.378906 -5.296875 2.164062 -5.382812 2.75 -5.5625 C 3.34375 -5.75 3.816406 -6.125 4.171875 -6.6875 C 4.523438 -7.25 4.828125 -8.078125 5.078125 -9.171875 C 5.328125 -10.265625 5.582031 -11.726562 5.84375 -13.5625 L 10.984375 -12.703125 C 10.867188 -12.097656 10.742188 -11.378906 10.609375 -10.546875 C 10.484375 -9.710938 10.421875 -8.941406 10.421875 -8.234375 C 10.421875 -7.609375 10.554688 -7.070312 10.828125 -6.625 C 11.109375 -6.175781 11.609375 -5.84375 12.328125 -5.625 C 13.046875 -5.40625 14.085938 -5.296875 15.453125 -5.296875 C 16.441406 -5.296875 17.144531 -5.039062 17.5625 -4.53125 C 17.976562 -4.019531 18.1875 -3.382812 18.1875 -2.625 C 18.1875 -1.8125 17.914062 -1.132812 17.375 -0.59375 C 16.84375 -0.0625 16.066406 0.203125 15.046875 0.203125 C 12.960938 0.203125 11.335938 -0.0195312 10.171875 -0.46875 C 9.003906 -0.914062 8.175781 -1.710938 7.6875 -2.859375 C 6.71875 -1.503906 5.570312 -0.65625 4.25 -0.3125 C 2.9375 0.03125 1.519531 0.203125 0 0.203125 Z M 8.390625 -17.171875 C 7.578125 -17.171875 6.890625 -17.441406 6.328125 -17.984375 C 5.765625 -18.535156 5.484375 -19.21875 5.484375 -20.03125 C 5.484375 -20.84375 5.765625 -21.535156 6.328125 -22.109375 C 6.890625 -22.679688 7.578125 -22.96875 8.390625 -22.96875 C 9.171875 -22.96875 9.84375 -22.679688 10.40625 -22.109375 C 10.96875 -21.535156 11.25 -20.84375 11.25 -20.03125 C 11.25 -19.21875 10.96875 -18.535156 10.40625 -17.984375 C 9.84375 -17.441406 9.171875 -17.171875 8.390625 -17.171875 Z M 8.390625 -17.171875 "/></g></g></g><g fill="#ffffff" fill-opacity="1"><g transform="translate(98.668298, 49.956854)"><g><path d="M 15.953125 0.3125 C 14.773438 0.3125 13.566406 0.171875 12.328125 -0.109375 C 11.085938 -0.398438 9.90625 -0.832031 8.78125 -1.40625 C 7.476562 -0.863281 6.082031 -0.457031 4.59375 -0.1875 C 3.101562 0.0703125 1.570312 0.203125 0 0.203125 L 0.390625 -5.296875 C 1.097656 -5.296875 1.765625 -5.300781 2.390625 -5.3125 C 3.015625 -5.320312 3.585938 -5.351562 4.109375 -5.40625 C 3.671875 -6.113281 3.320312 -6.882812 3.0625 -7.71875 C 2.800781 -8.5625 2.671875 -9.460938 2.671875 -10.421875 C 2.671875 -11.753906 2.988281 -12.976562 3.625 -14.09375 C 4.269531 -15.207031 5.21875 -16.007812 6.46875 -16.5 C 5.96875 -16.84375 5.445312 -17.195312 4.90625 -17.5625 L 7.921875 -21.84375 C 10.691406 -19.875 13.007812 -18.15625 14.875 -16.6875 C 16.75 -15.226562 18.257812 -13.953125 19.40625 -12.859375 C 20.550781 -11.765625 21.429688 -10.804688 22.046875 -9.984375 C 22.660156 -9.160156 23.070312 -8.398438 23.28125 -7.703125 C 23.488281 -7.015625 23.59375 -6.34375 23.59375 -5.6875 C 23.59375 -3.800781 22.925781 -2.328125 21.59375 -1.265625 C 20.269531 -0.210938 18.390625 0.3125 15.953125 0.3125 Z M 7.609375 -10.625 C 7.609375 -9.914062 7.753906 -9.257812 8.046875 -8.65625 C 8.347656 -8.0625 8.75 -7.53125 9.25 -7.0625 C 9.851562 -7.582031 10.320312 -8.164062 10.65625 -8.8125 C 11 -9.46875 11.171875 -10.109375 11.171875 -10.734375 C 11.171875 -11.335938 11.03125 -11.898438 10.75 -12.421875 C 10.476562 -12.953125 10.054688 -13.21875 9.484375 -13.21875 C 8.859375 -13.21875 8.390625 -12.945312 8.078125 -12.40625 C 7.765625 -11.875 7.609375 -11.28125 7.609375 -10.625 Z M 18.1875 -6.234375 C 18.1875 -6.648438 18.046875 -7.101562 17.765625 -7.59375 C 17.492188 -8.09375 16.828125 -8.816406 15.765625 -9.765625 C 15.710938 -8.816406 15.515625 -7.941406 15.171875 -7.140625 C 14.828125 -6.347656 14.394531 -5.628906 13.875 -4.984375 C 14.550781 -4.847656 15.242188 -4.78125 15.953125 -4.78125 C 16.765625 -4.78125 17.335938 -4.910156 17.671875 -5.171875 C 18.015625 -5.429688 18.1875 -5.785156 18.1875 -6.234375 Z M 18.1875 -6.234375 "/></g></g></g><g clip-path="url(#e7e9ab245a)"><path fill="#ffffff" d="M 145.917969 35.214844 C 145.75 35.390625 145.75 35.652344 145.917969 35.824219 L 163.882812 54.746094 C 163.964844 54.832031 164.050781 54.875 164.175781 54.875 L 166.875 54.964844 C 167 54.964844 167.085938 54.921875 167.167969 54.832031 C 167.253906 54.746094 167.296875 54.660156 167.296875 54.527344 L 167.296875 47.117188 C 167.296875 46.984375 167.253906 46.898438 167.167969 46.8125 L 156.292969 35.476562 L 167.253906 24.230469 C 167.339844 24.140625 167.378906 24.054688 167.378906 23.925781 L 167.378906 18.386719 C 167.378906 18.257812 167.296875 18.082031 167.167969 18.039062 L 164.472656 16.25 C 164.34375 16.164062 164.21875 16.164062 164.09375 16.207031 C 164.050781 16.207031 163.964844 16.25 163.921875 16.296875 Z M 184.160156 54.964844 L 181.421875 54.875 C 181.292969 54.875 181.210938 54.832031 181.125 54.746094 L 163.164062 35.824219 C 162.996094 35.652344 162.996094 35.390625 163.164062 35.214844 L 181.125 16.296875 C 181.167969 16.25 181.210938 16.207031 181.292969 16.207031 C 181.421875 16.164062 181.589844 16.164062 181.675781 16.25 L 184.371094 18.039062 C 184.5 18.082031 184.582031 18.257812 184.582031 18.386719 L 184.582031 23.925781 C 184.582031 24.054688 184.542969 24.140625 184.457031 24.230469 L 173.578125 35.476562 L 184.457031 46.8125 C 184.542969 46.898438 184.582031 46.984375 184.582031 47.117188 L 184.582031 54.527344 C 184.582031 54.660156 184.542969 54.746094 184.457031 54.832031 C 184.371094 54.921875 184.289062 54.964844 184.160156 54.964844 Z M 184.160156 54.964844 " fill-opacity="1" fill-rule="nonzero"/></g></svg>