<svg xmlns="http://www.w3.org/2000/svg" xmlns:xlink="http://www.w3.org/1999/xlink" width="500" zoomAndPan="magnify" viewBox="0 0 375 71.249999" height="95" preserveAspectRatio="xMidYMid meet" version="1.0"><defs><g/><clipPath id="c33258b472"><path d="M 147.308594 11.941406 L 195.277344 11.941406 L 195.277344 58.097656 L 147.308594 58.097656 Z M 147.308594 11.941406 " clip-rule="nonzero"/></clipPath></defs><g clip-path="url(#c33258b472)"><path fill="#ffffff" d="M 147.515625 34.605469 C 147.308594 34.8125 147.308594 35.125 147.515625 35.332031 L 169.753906 57.808594 C 169.859375 57.914062 169.960938 57.964844 170.117188 57.964844 L 173.460938 58.066406 C 173.617188 58.066406 173.722656 58.015625 173.824219 57.914062 C 173.929688 57.808594 173.980469 57.707031 173.980469 57.550781 L 173.980469 48.746094 C 173.980469 48.589844 173.929688 48.484375 173.824219 48.382812 L 160.355469 34.917969 L 173.929688 21.554688 C 174.035156 21.449219 174.085938 21.347656 174.085938 21.191406 L 174.085938 14.613281 C 174.085938 14.457031 173.980469 14.25 173.824219 14.199219 L 170.484375 12.074219 C 170.328125 11.972656 170.171875 11.972656 170.015625 12.023438 C 169.960938 12.023438 169.859375 12.074219 169.804688 12.128906 Z M 194.863281 58.066406 L 191.46875 57.964844 C 191.3125 57.964844 191.207031 57.914062 191.105469 57.808594 L 168.867188 35.332031 C 168.65625 35.125 168.65625 34.8125 168.867188 34.605469 L 191.105469 12.128906 C 191.15625 12.074219 191.207031 12.023438 191.3125 12.023438 C 191.46875 11.972656 191.679688 11.972656 191.78125 12.074219 L 195.125 14.199219 C 195.28125 14.25 195.382812 14.457031 195.382812 14.613281 L 195.382812 21.191406 C 195.382812 21.347656 195.332031 21.449219 195.226562 21.554688 L 181.761719 34.917969 L 195.226562 48.382812 C 195.332031 48.484375 195.382812 48.589844 195.382812 48.746094 L 195.382812 57.550781 C 195.382812 57.707031 195.332031 57.808594 195.226562 57.914062 C 195.125 58.015625 195.019531 58.066406 194.863281 58.066406 Z M 194.863281 58.066406 " fill-opacity="1" fill-rule="nonzero"/></g><g fill="#ffffff" fill-opacity="1"><g transform="translate(208.130157, 49.677052)"><g><path d="M 21.609375 0.1875 C 19.660156 0.1875 18 -0.0664062 16.625 -0.578125 C 15.257812 -1.097656 14.222656 -1.976562 13.515625 -3.21875 C 11.890625 -2.914062 10.320312 -2.820312 8.8125 -2.9375 C 7.3125 -3.050781 5.976562 -3.375 4.8125 -3.90625 C 3.644531 -4.4375 2.722656 -5.195312 2.046875 -6.1875 C 1.378906 -7.1875 1.046875 -8.425781 1.046875 -9.90625 C 1.046875 -11.644531 1.519531 -13.164062 2.46875 -14.46875 C 3.414062 -15.78125 4.710938 -16.890625 6.359375 -17.796875 C 8.003906 -18.703125 9.863281 -19.398438 11.9375 -19.890625 L 11.8125 -22.84375 L 17.296875 -22.84375 L 17.953125 -9.09375 C 18.023438 -7.488281 18.378906 -6.445312 19.015625 -5.96875 C 19.648438 -5.488281 20.644531 -5.25 22 -5.25 C 22.976562 -5.25 23.675781 -4.992188 24.09375 -4.484375 C 24.507812 -3.984375 24.71875 -3.359375 24.71875 -2.609375 C 24.71875 -1.804688 24.453125 -1.140625 23.921875 -0.609375 C 23.390625 -0.078125 22.617188 0.1875 21.609375 0.1875 Z M 6.484375 -10.421875 C 6.484375 -9.816406 6.773438 -9.347656 7.359375 -9.015625 C 7.941406 -8.679688 8.6875 -8.46875 9.59375 -8.375 C 10.5 -8.28125 11.445312 -8.328125 12.4375 -8.515625 L 12.203125 -14.5 C 10.441406 -14.207031 9.046875 -13.6875 8.015625 -12.9375 C 6.992188 -12.1875 6.484375 -11.347656 6.484375 -10.421875 Z M 7.890625 -26.890625 C 7.140625 -26.890625 6.5 -27.15625 5.96875 -27.6875 C 5.4375 -28.21875 5.171875 -28.847656 5.171875 -29.578125 C 5.171875 -30.328125 5.4375 -30.972656 5.96875 -31.515625 C 6.5 -32.066406 7.140625 -32.34375 7.890625 -32.34375 C 8.609375 -32.34375 9.226562 -32.066406 9.75 -31.515625 C 10.269531 -30.972656 10.53125 -30.328125 10.53125 -29.578125 C 10.53125 -28.847656 10.269531 -28.21875 9.75 -27.6875 C 9.226562 -27.15625 8.609375 -26.890625 7.890625 -26.890625 Z M 14.609375 -26.859375 C 13.859375 -26.859375 13.21875 -27.113281 12.6875 -27.625 C 12.15625 -28.144531 11.890625 -28.785156 11.890625 -29.546875 C 11.890625 -30.296875 12.15625 -30.941406 12.6875 -31.484375 C 13.21875 -32.023438 13.859375 -32.296875 14.609375 -32.296875 C 15.335938 -32.296875 15.957031 -32.023438 16.46875 -31.484375 C 16.988281 -30.941406 17.25 -30.296875 17.25 -29.546875 C 17.25 -28.785156 16.988281 -28.144531 16.46875 -27.625 C 15.957031 -27.113281 15.335938 -26.859375 14.609375 -26.859375 Z M 14.609375 -26.859375 "/></g></g></g><g fill="#ffffff" fill-opacity="1"><g transform="translate(229.732062, 49.677052)"><g><path d="M 0 0.1875 L 0.390625 -5.25 C 1.242188 -5.25 1.941406 -5.316406 2.484375 -5.453125 C 3.023438 -5.597656 3.472656 -5.921875 3.828125 -6.421875 C 4.179688 -6.929688 4.492188 -7.695312 4.765625 -8.71875 C 5.035156 -9.75 5.335938 -11.144531 5.671875 -12.90625 L 10.71875 -11.96875 C 10.613281 -11.394531 10.476562 -10.679688 10.3125 -9.828125 C 10.144531 -8.972656 10.0625 -8.234375 10.0625 -7.609375 C 10.0625 -6.890625 10.296875 -6.316406 10.765625 -5.890625 C 11.234375 -5.460938 12.113281 -5.25 13.40625 -5.25 C 14.050781 -5.25 14.613281 -5.316406 15.09375 -5.453125 C 15.570312 -5.597656 15.984375 -5.921875 16.328125 -6.421875 C 16.679688 -6.929688 16.992188 -7.722656 17.265625 -8.796875 C 17.546875 -9.878906 17.8125 -11.335938 18.0625 -13.171875 L 23.203125 -12.359375 C 23.046875 -11.453125 22.890625 -10.492188 22.734375 -9.484375 C 22.578125 -8.472656 22.5 -7.707031 22.5 -7.1875 C 22.5 -6.695312 22.738281 -6.25 23.21875 -5.84375 C 23.695312 -5.445312 24.675781 -5.25 26.15625 -5.25 C 27.1875 -5.25 28.003906 -5.453125 28.609375 -5.859375 C 29.222656 -6.273438 29.53125 -7.003906 29.53125 -8.046875 C 29.53125 -9.003906 29.3125 -10.257812 28.875 -11.8125 C 28.4375 -13.363281 27.914062 -14.992188 27.3125 -16.703125 L 32.796875 -18.34375 C 33.210938 -17.226562 33.582031 -16.039062 33.90625 -14.78125 C 34.226562 -13.53125 34.484375 -12.304688 34.671875 -11.109375 C 34.867188 -9.921875 34.96875 -8.898438 34.96875 -8.046875 C 34.96875 -5.378906 34.179688 -3.335938 32.609375 -1.921875 C 31.046875 -0.515625 29.007812 0.1875 26.5 0.1875 C 24.6875 0.1875 23.273438 -0.0234375 22.265625 -0.453125 C 21.253906 -0.878906 20.53125 -1.648438 20.09375 -2.765625 C 19.570312 -1.859375 19.003906 -1.195312 18.390625 -0.78125 C 17.785156 -0.363281 17.066406 -0.0976562 16.234375 0.015625 C 15.410156 0.128906 14.429688 0.1875 13.296875 0.1875 C 12.585938 0.1875 11.882812 0.128906 11.1875 0.015625 C 10.488281 -0.0976562 9.820312 -0.34375 9.1875 -0.71875 C 8.550781 -1.09375 8 -1.695312 7.53125 -2.53125 C 6.65625 -1.332031 5.582031 -0.578125 4.3125 -0.265625 C 3.039062 0.0351562 1.601562 0.1875 0 0.1875 Z M 0 0.1875 "/></g></g></g><g fill="#ffffff" fill-opacity="1"><g transform="translate(266.64178, 49.677052)"><g><path d="M 0.625 8.9375 L -1.359375 3.96875 C 1.953125 2.800781 4.359375 1.460938 5.859375 -0.046875 C 7.367188 -1.566406 8.125 -3.179688 8.125 -4.890625 C 8.125 -5.984375 7.890625 -7.148438 7.421875 -8.390625 C 6.953125 -9.640625 6.34375 -10.988281 5.59375 -12.4375 L 10.6875 -14.890625 C 11.59375 -13.148438 12.296875 -11.488281 12.796875 -9.90625 C 13.304688 -8.320312 13.5625 -6.847656 13.5625 -5.484375 C 13.5625 -2.296875 12.523438 0.515625 10.453125 2.953125 C 8.378906 5.390625 5.101562 7.382812 0.625 8.9375 Z M 0.625 8.9375 "/></g></g></g><g fill="#ffffff" fill-opacity="1"><g transform="translate(282.532394, 49.677052)"><g><path d="M 8.46875 -5.25 C 10.207031 -5.25 11.359375 -5.472656 11.921875 -5.921875 C 12.492188 -6.378906 12.78125 -6.894531 12.78125 -7.46875 C 12.78125 -8.082031 12.601562 -8.800781 12.25 -9.625 C 11.90625 -10.457031 11.472656 -11.328125 10.953125 -12.234375 C 10.441406 -13.140625 9.898438 -14.007812 9.328125 -14.84375 C 8.753906 -15.675781 8.257812 -16.398438 7.84375 -17.015625 L 12.46875 -20.09375 C 14.15625 -17.832031 15.484375 -15.644531 16.453125 -13.53125 C 17.429688 -11.425781 18.070312 -9.710938 18.375 -8.390625 C 18.664062 -7.148438 19.210938 -6.316406 20.015625 -5.890625 C 20.816406 -5.460938 21.65625 -5.25 22.53125 -5.25 C 23.519531 -5.25 24.226562 -4.992188 24.65625 -4.484375 C 25.082031 -3.984375 25.296875 -3.359375 25.296875 -2.609375 C 25.296875 -1.804688 25.03125 -1.140625 24.5 -0.609375 C 23.96875 -0.078125 23.1875 0.1875 22.15625 0.1875 C 19.71875 0.1875 17.898438 -0.5625 16.703125 -2.0625 C 16.003906 -1.382812 15.019531 -0.832031 13.75 -0.40625 C 12.488281 0.0195312 10.988281 0.234375 9.25 0.234375 C 8.0625 0.234375 6.726562 0.09375 5.25 -0.1875 C 3.769531 -0.476562 2.472656 -0.929688 1.359375 -1.546875 L 3.265625 -6.484375 C 4.222656 -6.046875 5.148438 -5.726562 6.046875 -5.53125 C 6.941406 -5.34375 7.75 -5.25 8.46875 -5.25 Z M 8.46875 -5.25 "/></g></g></g><g fill="#ffffff" fill-opacity="1"><g transform="translate(304.717085, 49.677052)"><g><path d="M 0 0.1875 L 0.390625 -5.25 C 1.015625 -5.25 1.5 -5.375 1.84375 -5.625 C 2.195312 -5.882812 2.539062 -6.332031 2.875 -6.96875 C 3.207031 -7.601562 3.675781 -8.492188 4.28125 -9.640625 C 5.570312 -12.097656 6.945312 -13.804688 8.40625 -14.765625 C 9.875 -15.722656 11.296875 -16.203125 12.671875 -16.203125 C 14.097656 -16.203125 15.410156 -15.726562 16.609375 -14.78125 C 17.816406 -13.84375 18.953125 -12.101562 20.015625 -9.5625 C 20.765625 -7.800781 21.515625 -6.640625 22.265625 -6.078125 C 23.015625 -5.523438 23.804688 -5.25 24.640625 -5.25 C 25.617188 -5.25 26.316406 -4.992188 26.734375 -4.484375 C 27.148438 -3.984375 27.359375 -3.359375 27.359375 -2.609375 C 27.359375 -1.804688 27.082031 -1.140625 26.53125 -0.609375 C 25.988281 -0.078125 25.226562 0.1875 24.25 0.1875 C 23.101562 0.1875 22.050781 0.0195312 21.09375 -0.3125 C 20.132812 -0.644531 19.347656 -1.132812 18.734375 -1.78125 C 18.285156 -1.132812 17.679688 -0.554688 16.921875 -0.046875 C 16.160156 0.453125 15.234375 0.703125 14.140625 0.703125 C 13.492188 0.703125 12.734375 0.578125 11.859375 0.328125 C 10.992188 0.0859375 10.101562 -0.320312 9.1875 -0.90625 C 8.269531 -1.488281 7.421875 -2.285156 6.640625 -3.296875 C 5.890625 -1.929688 5.019531 -1.007812 4.03125 -0.53125 C 3.050781 -0.0507812 1.707031 0.1875 0 0.1875 Z M 8.90625 -7.890625 C 9.394531 -7.085938 10.101562 -6.351562 11.03125 -5.6875 C 11.96875 -5.03125 12.941406 -4.703125 13.953125 -4.703125 C 14.472656 -4.703125 14.898438 -4.898438 15.234375 -5.296875 C 15.566406 -5.703125 15.578125 -6.304688 15.265625 -7.109375 C 15.085938 -7.546875 14.835938 -8.0625 14.515625 -8.65625 C 14.191406 -9.257812 13.828125 -9.773438 13.421875 -10.203125 C 13.023438 -10.628906 12.59375 -10.84375 12.125 -10.84375 C 11.601562 -10.84375 11.070312 -10.609375 10.53125 -10.140625 C 9.988281 -9.671875 9.445312 -8.921875 8.90625 -7.890625 Z M 8.90625 -7.890625 "/></g></g></g><g fill="#ffffff" fill-opacity="1"><g transform="translate(328.960946, 49.677052)"><g><path d="M 0 0.1875 L 0.390625 -5.25 C 1.578125 -5.25 2.429688 -5.367188 2.953125 -5.609375 C 3.472656 -5.859375 3.785156 -6.328125 3.890625 -7.015625 C 3.992188 -7.703125 4.019531 -8.707031 3.96875 -10.03125 L 3.265625 -28.4375 L 8.75 -28.4375 L 9.515625 -9.640625 C 9.566406 -8.140625 9.507812 -6.785156 9.34375 -5.578125 C 9.175781 -4.367188 8.773438 -3.335938 8.140625 -2.484375 C 7.503906 -1.628906 6.53125 -0.96875 5.21875 -0.5 C 3.914062 -0.0390625 2.175781 0.1875 0 0.1875 Z M 0 0.1875 "/></g></g></g><g fill="#ffffff" fill-opacity="1"><g transform="translate(340.500097, 49.677052)"><g><path d="M 3.109375 0 L 2.296875 -28.4375 L 7.734375 -28.4375 L 8.546875 0 Z M 3.109375 0 "/></g></g></g><g fill="#ffffff" fill-opacity="1"><g transform="translate(24.242871, 53.192216)"><g><path d="M 16.40625 11.09375 C 13.34375 11.09375 10.675781 10.625 8.40625 9.6875 C 6.144531 8.75 4.382812 7.363281 3.125 5.53125 C 1.875 3.695312 1.25 1.40625 1.25 -1.34375 C 1.25 -2.425781 1.398438 -3.8125 1.703125 -5.5 C 2.003906 -7.1875 2.679688 -9.195312 3.734375 -11.53125 L 9.609375 -9.46875 C 9.066406 -7.96875 8.648438 -6.679688 8.359375 -5.609375 C 8.078125 -4.546875 7.9375 -3.503906 7.9375 -2.484375 C 7.9375 -1.210938 8.222656 -0.0625 8.796875 0.96875 C 9.367188 2.007812 10.289062 2.84375 11.5625 3.46875 C 12.84375 4.09375 14.519531 4.40625 16.59375 4.40625 C 19.144531 4.40625 21.140625 4.035156 22.578125 3.296875 C 24.015625 2.566406 25.019531 1.578125 25.59375 0.328125 C 26.164062 -0.910156 26.453125 -2.296875 26.453125 -3.828125 C 26.453125 -5.128906 26.21875 -6.703125 25.75 -8.546875 C 25.289062 -10.398438 24.695312 -12.445312 23.96875 -14.6875 L 30.65625 -16.40625 C 31.101562 -14.550781 31.460938 -13.113281 31.734375 -12.09375 C 32.003906 -11.070312 32.21875 -10.3125 32.375 -9.8125 C 32.851562 -8.375 33.488281 -7.4375 34.28125 -7 C 35.082031 -6.570312 36.023438 -6.375 37.109375 -6.40625 C 37.710938 -6.40625 38.269531 -6.5 38.78125 -6.6875 C 39.289062 -6.882812 39.757812 -7.289062 40.1875 -7.90625 C 40.625 -8.53125 41.015625 -9.492188 41.359375 -10.796875 C 41.710938 -12.109375 42.035156 -13.914062 42.328125 -16.21875 L 48.640625 -15.203125 C 48.453125 -14.085938 48.257812 -12.910156 48.0625 -11.671875 C 47.875 -10.429688 47.78125 -9.472656 47.78125 -8.796875 C 47.78125 -8.160156 48.070312 -7.609375 48.65625 -7.140625 C 49.25 -6.679688 50.425781 -6.453125 52.1875 -6.453125 C 53.488281 -6.453125 54.519531 -6.664062 55.28125 -7.09375 C 56.050781 -7.53125 56.4375 -8.453125 56.4375 -9.859375 C 56.4375 -11.066406 56.164062 -12.625 55.625 -14.53125 C 55.082031 -16.445312 54.445312 -18.457031 53.71875 -20.5625 L 60.453125 -22.578125 C 60.960938 -21.203125 61.414062 -19.738281 61.8125 -18.1875 C 62.21875 -16.644531 62.539062 -15.140625 62.78125 -13.671875 C 63.019531 -12.210938 63.140625 -10.957031 63.140625 -9.90625 C 63.140625 -6.488281 62.164062 -3.941406 60.21875 -2.265625 C 58.269531 -0.597656 55.640625 0.234375 52.328125 0.234375 C 50.535156 0.234375 48.976562 -0.0546875 47.65625 -0.640625 C 46.332031 -1.234375 45.382812 -2.070312 44.8125 -3.15625 C 43.988281 -1.71875 42.960938 -0.789062 41.734375 -0.375 C 40.503906 0.03125 39.265625 0.234375 38.015625 0.234375 C 37.003906 0.234375 36.035156 0.109375 35.109375 -0.140625 C 34.179688 -0.398438 33.382812 -0.816406 32.71875 -1.390625 C 32.300781 2.566406 30.648438 5.632812 27.765625 7.8125 C 24.878906 10 21.09375 11.09375 16.40625 11.09375 Z M 16.40625 11.09375 "/></g></g></g><g fill="#ffffff" fill-opacity="1"><g transform="translate(89.771017, 53.192216)"><g><path d="M 0.765625 11 L -1.671875 4.875 C 2.410156 3.4375 5.375 1.785156 7.21875 -0.078125 C 9.070312 -1.941406 10 -3.925781 10 -6.03125 C 10 -7.363281 9.710938 -8.796875 9.140625 -10.328125 C 8.566406 -11.859375 7.816406 -13.519531 6.890625 -15.3125 L 13.15625 -18.3125 C 14.269531 -16.175781 15.132812 -14.132812 15.75 -12.1875 C 16.375 -10.25 16.6875 -8.4375 16.6875 -6.75 C 16.6875 -2.820312 15.410156 0.632812 12.859375 3.625 C 10.316406 6.625 6.285156 9.082031 0.765625 11 Z M 0.765625 11 "/></g></g></g><g fill="#ffffff" fill-opacity="1"><g transform="translate(109.333802, 53.192216)"><g><path d="M 1.671875 -1.90625 L 4.015625 -7.984375 C 6.273438 -6.960938 8.492188 -6.453125 10.671875 -6.453125 C 14.046875 -6.453125 15.734375 -7.363281 15.734375 -9.1875 C 15.734375 -9.726562 15.566406 -10.472656 15.234375 -11.421875 C 14.898438 -12.378906 14.300781 -13.628906 13.4375 -15.171875 C 12.570312 -16.722656 11.3125 -18.648438 9.65625 -20.953125 L 15.359375 -24.734375 C 17.617188 -21.441406 19.429688 -18.328125 20.796875 -15.390625 C 22.171875 -12.460938 22.859375 -9.992188 22.859375 -7.984375 C 22.859375 -5.523438 21.878906 -3.53125 19.921875 -2 C 17.960938 -0.476562 15.117188 0.28125 11.390625 0.28125 C 10.460938 0.28125 9.414062 0.203125 8.25 0.046875 C 7.082031 -0.109375 5.925781 -0.34375 4.78125 -0.65625 C 3.632812 -0.976562 2.597656 -1.394531 1.671875 -1.90625 Z M 1.671875 -1.90625 "/></g></g></g></svg>