<svg xmlns="http://www.w3.org/2000/svg" xmlns:xlink="http://www.w3.org/1999/xlink" width="500" zoomAndPan="magnify" viewBox="0 0 375 71.249999" height="95" preserveAspectRatio="xMidYMid meet" version="1.0"><defs><g/><clipPath id="55f96e5270"><path d="M 181.933594 13.777344 L 225.695312 13.777344 L 225.695312 56.851562 L 181.933594 56.851562 Z M 181.933594 13.777344 " clip-rule="nonzero"/></clipPath></defs><g clip-path="url(#55f96e5270)"><path fill="#ffffff" d="M 182.125 34.929688 C 181.933594 35.121094 181.933594 35.410156 182.125 35.605469 L 202.511719 56.582031 C 202.605469 56.679688 202.703125 56.726562 202.847656 56.726562 L 205.910156 56.824219 C 206.054688 56.824219 206.148438 56.777344 206.246094 56.679688 C 206.339844 56.582031 206.386719 56.484375 206.386719 56.339844 L 206.386719 48.125 C 206.386719 47.980469 206.339844 47.882812 206.246094 47.785156 L 193.898438 35.21875 L 206.339844 22.75 C 206.4375 22.652344 206.484375 22.554688 206.484375 22.410156 L 206.484375 16.269531 C 206.484375 16.125 206.386719 15.933594 206.246094 15.882812 L 203.183594 13.902344 C 203.039062 13.804688 202.894531 13.804688 202.75 13.855469 C 202.703125 13.855469 202.605469 13.902344 202.558594 13.953125 Z M 225.53125 56.824219 L 222.417969 56.726562 C 222.277344 56.726562 222.179688 56.679688 222.085938 56.582031 L 201.699219 35.605469 C 201.507812 35.410156 201.507812 35.121094 201.699219 34.929688 L 222.085938 13.953125 C 222.132812 13.902344 222.179688 13.855469 222.277344 13.855469 C 222.417969 13.804688 222.609375 13.804688 222.707031 13.902344 L 225.769531 15.882812 C 225.914062 15.933594 226.007812 16.125 226.007812 16.269531 L 226.007812 22.410156 C 226.007812 22.554688 225.960938 22.652344 225.863281 22.75 L 213.519531 35.21875 L 225.863281 47.785156 C 225.960938 47.882812 226.007812 47.980469 226.007812 48.125 L 226.007812 56.339844 C 226.007812 56.484375 225.960938 56.582031 225.863281 56.679688 C 225.769531 56.777344 225.671875 56.824219 225.53125 56.824219 Z M 225.53125 56.824219 " fill-opacity="1" fill-rule="nonzero"/></g><g fill="#ffffff" fill-opacity="1"><g transform="translate(238.941519, 50.780079)"><g><path d="M 0.640625 9.25 L -1.40625 4.28125 C 0.488281 3.613281 2.171875 2.832031 3.640625 1.9375 C 5.109375 1.039062 6.265625 0.015625 7.109375 -1.140625 C 7.953125 -2.304688 8.375 -3.609375 8.375 -5.046875 C 8.375 -6.171875 8.117188 -7.398438 7.609375 -8.734375 C 7.097656 -10.066406 6.484375 -11.425781 5.765625 -12.8125 L 11.015625 -15.34375 C 11.472656 -14.519531 11.882812 -13.628906 12.25 -12.671875 C 12.625 -11.722656 12.929688 -10.875 13.171875 -10.125 C 13.421875 -9.382812 13.582031 -8.878906 13.65625 -8.609375 C 14.03125 -7.328125 14.546875 -6.472656 15.203125 -6.046875 C 15.859375 -5.617188 16.921875 -5.40625 18.390625 -5.40625 C 19.378906 -5.40625 20.097656 -5.144531 20.546875 -4.625 C 21.003906 -4.101562 21.234375 -3.457031 21.234375 -2.6875 C 21.234375 -1.851562 20.953125 -1.160156 20.390625 -0.609375 C 19.828125 -0.0664062 19.023438 0.203125 17.984375 0.203125 C 15.953125 0.203125 14.40625 -0.34375 13.34375 -1.4375 C 12.882812 0.21875 12.019531 1.742188 10.75 3.140625 C 9.488281 4.546875 7.972656 5.769531 6.203125 6.8125 C 4.441406 7.851562 2.585938 8.664062 0.640625 9.25 Z M 0.640625 9.25 "/></g></g></g><g fill="#ffffff" fill-opacity="1"><g transform="translate(256.964911, 50.780079)"><g><path d="M 0 0.203125 L 0.40625 -5.40625 C 1.363281 -5.40625 2.1875 -5.5 2.875 -5.6875 C 3.570312 -5.875 4.160156 -6.253906 4.640625 -6.828125 C 5.128906 -7.398438 5.539062 -8.25 5.875 -9.375 C 6.207031 -10.5 6.503906 -11.992188 6.765625 -13.859375 L 12.015625 -12.984375 C 11.910156 -12.367188 11.789062 -11.632812 11.65625 -10.78125 C 11.519531 -9.925781 11.453125 -9.132812 11.453125 -8.40625 C 11.453125 -7.445312 11.851562 -6.707031 12.65625 -6.1875 C 13.457031 -5.664062 14.832031 -5.40625 16.78125 -5.40625 C 17.769531 -5.40625 18.484375 -5.144531 18.921875 -4.625 C 19.367188 -4.101562 19.59375 -3.457031 19.59375 -2.6875 C 19.59375 -1.851562 19.316406 -1.160156 18.765625 -0.609375 C 18.222656 -0.0664062 17.429688 0.203125 16.390625 0.203125 C 14.515625 0.203125 12.914062 -0.0351562 11.59375 -0.515625 C 10.269531 -0.992188 9.300781 -1.847656 8.6875 -3.078125 C 7.96875 -2.117188 7.117188 -1.40625 6.140625 -0.9375 C 5.171875 -0.46875 4.15625 -0.160156 3.09375 -0.015625 C 2.039062 0.128906 1.007812 0.203125 0 0.203125 Z M 11.171875 9.5 C 10.398438 9.5 9.738281 9.226562 9.1875 8.6875 C 8.644531 8.15625 8.375 7.503906 8.375 6.734375 C 8.375 5.960938 8.644531 5.296875 9.1875 4.734375 C 9.738281 4.171875 10.398438 3.890625 11.171875 3.890625 C 11.921875 3.890625 12.5625 4.171875 13.09375 4.734375 C 13.632812 5.296875 13.90625 5.960938 13.90625 6.734375 C 13.90625 7.503906 13.632812 8.15625 13.09375 8.6875 C 12.5625 9.226562 11.921875 9.5 11.171875 9.5 Z M 4.25 9.5 C 3.46875 9.5 2.800781 9.226562 2.25 8.6875 C 1.707031 8.15625 1.4375 7.503906 1.4375 6.734375 C 1.4375 5.960938 1.707031 5.296875 2.25 4.734375 C 2.800781 4.171875 3.46875 3.890625 4.25 3.890625 C 5 3.890625 5.640625 4.171875 6.171875 4.734375 C 6.703125 5.296875 6.96875 5.960938 6.96875 6.734375 C 6.96875 7.503906 6.703125 8.15625 6.171875 8.6875 C 5.640625 9.226562 5 9.5 4.25 9.5 Z M 4.25 9.5 "/></g></g></g><g fill="#ffffff" fill-opacity="1"><g transform="translate(273.346178, 50.780079)"><g><path d="M 0 0.203125 L 0.40625 -5.375 C 1.207031 -5.34375 1.957031 -5.347656 2.65625 -5.390625 C 3.363281 -5.429688 4.023438 -5.476562 4.640625 -5.53125 C 4.054688 -6.21875 3.570312 -6.992188 3.1875 -7.859375 C 2.800781 -8.734375 2.609375 -9.71875 2.609375 -10.8125 C 2.609375 -12.46875 3.019531 -13.914062 3.84375 -15.15625 C 4.675781 -16.40625 5.722656 -17.375 6.984375 -18.0625 C 8.253906 -18.757812 9.554688 -19.109375 10.890625 -19.109375 C 12.492188 -19.109375 13.882812 -18.734375 15.0625 -17.984375 C 16.238281 -17.234375 17.15625 -16.25 17.8125 -15.03125 C 18.46875 -13.820312 18.796875 -12.523438 18.796875 -11.140625 C 18.796875 -10.015625 18.609375 -8.984375 18.234375 -8.046875 C 17.859375 -7.117188 17.363281 -6.289062 16.75 -5.5625 C 17.550781 -5.507812 18.359375 -5.46875 19.171875 -5.4375 C 19.984375 -5.414062 20.773438 -5.40625 21.546875 -5.40625 C 22.566406 -5.40625 23.296875 -5.144531 23.734375 -4.625 C 24.171875 -4.101562 24.390625 -3.457031 24.390625 -2.6875 C 24.390625 -1.851562 24.109375 -1.160156 23.546875 -0.609375 C 22.992188 -0.0664062 22.195312 0.203125 21.15625 0.203125 C 19.175781 0.203125 17.25 0.0703125 15.375 -0.1875 C 13.507812 -0.457031 11.882812 -0.847656 10.5 -1.359375 C 9.507812 -0.929688 8.09375 -0.554688 6.25 -0.234375 C 4.40625 0.078125 2.320312 0.222656 0 0.203125 Z M 8.125 -10.421875 C 8.125 -9.753906 8.3125 -9.125 8.6875 -8.53125 C 9.0625 -7.945312 9.582031 -7.398438 10.25 -6.890625 C 11.21875 -7.316406 11.960938 -7.847656 12.484375 -8.484375 C 13.003906 -9.128906 13.265625 -9.828125 13.265625 -10.578125 C 13.265625 -11.296875 13.039062 -12 12.59375 -12.6875 C 12.15625 -13.382812 11.550781 -13.734375 10.78125 -13.734375 C 10.03125 -13.734375 9.398438 -13.410156 8.890625 -12.765625 C 8.378906 -12.128906 8.125 -11.347656 8.125 -10.421875 Z M 10.9375 -22.84375 C 10.113281 -22.84375 9.414062 -23.125 8.84375 -23.6875 C 8.269531 -24.25 7.984375 -24.941406 7.984375 -25.765625 C 7.984375 -26.585938 8.269531 -27.289062 8.84375 -27.875 C 9.414062 -28.46875 10.113281 -28.765625 10.9375 -28.765625 C 11.738281 -28.765625 12.425781 -28.46875 13 -27.875 C 13.582031 -27.289062 13.875 -26.585938 13.875 -25.765625 C 13.875 -24.941406 13.582031 -24.25 13 -23.6875 C 12.425781 -23.125 11.738281 -22.84375 10.9375 -22.84375 Z M 10.9375 -22.84375 "/></g></g></g><g fill="#ffffff" fill-opacity="1"><g transform="translate(294.533672, 50.780079)"><g><path d="M 0 0.203125 L 0.40625 -5.40625 C 1.28125 -5.40625 2 -5.476562 2.5625 -5.625 C 3.125 -5.769531 3.582031 -6.101562 3.9375 -6.625 C 4.300781 -7.144531 4.625 -7.929688 4.90625 -8.984375 C 5.1875 -10.046875 5.5 -11.484375 5.84375 -13.296875 L 11.0625 -12.34375 C 10.945312 -11.75 10.800781 -11.007812 10.625 -10.125 C 10.457031 -9.25 10.375 -8.492188 10.375 -7.859375 C 10.375 -7.109375 10.609375 -6.507812 11.078125 -6.0625 C 11.546875 -5.625 12.445312 -5.40625 13.78125 -5.40625 C 14.476562 -5.40625 15.070312 -5.476562 15.5625 -5.625 C 16.0625 -5.769531 16.488281 -6.101562 16.84375 -6.625 C 17.207031 -7.144531 17.53125 -7.957031 17.8125 -9.0625 C 18.09375 -10.175781 18.363281 -11.679688 18.625 -13.578125 L 23.921875 -12.734375 C 23.753906 -11.804688 23.59375 -10.820312 23.4375 -9.78125 C 23.28125 -8.738281 23.203125 -7.945312 23.203125 -7.40625 C 23.203125 -6.875 23.445312 -6.40625 23.9375 -6 C 24.425781 -5.601562 25.421875 -5.40625 26.921875 -5.40625 C 29.273438 -5.40625 30.453125 -6.460938 30.453125 -8.578125 C 30.453125 -9.484375 30.414062 -10.515625 30.34375 -11.671875 C 30.28125 -12.835938 30.140625 -14.289062 29.921875 -16.03125 L 35.09375 -16.421875 C 35.28125 -14.128906 35.492188 -12.257812 35.734375 -10.8125 C 35.972656 -9.375 36.300781 -8.257812 36.71875 -7.46875 C 37.132812 -6.6875 37.695312 -6.144531 38.40625 -5.84375 C 39.113281 -5.550781 40.039062 -5.40625 41.1875 -5.40625 C 42.195312 -5.40625 42.921875 -5.144531 43.359375 -4.625 C 43.804688 -4.101562 44.03125 -3.457031 44.03125 -2.6875 C 44.03125 -1.851562 43.753906 -1.160156 43.203125 -0.609375 C 42.660156 -0.0664062 41.851562 0.203125 40.78125 0.203125 C 39.90625 0.203125 39 0.109375 38.0625 -0.078125 C 37.125 -0.265625 36.25 -0.648438 35.4375 -1.234375 C 34.625 -1.828125 33.960938 -2.710938 33.453125 -3.890625 C 32.867188 -2.253906 32.015625 -1.160156 30.890625 -0.609375 C 29.765625 -0.0664062 28.304688 0.203125 26.515625 0.203125 C 25.097656 0.203125 23.867188 -0.015625 22.828125 -0.453125 C 21.785156 -0.898438 21.050781 -1.65625 20.625 -2.71875 C 20.125 -1.863281 19.550781 -1.226562 18.90625 -0.8125 C 18.269531 -0.40625 17.507812 -0.132812 16.625 0 C 15.738281 0.132812 14.695312 0.203125 13.5 0.203125 C 12.78125 0.203125 12.066406 0.144531 11.359375 0.03125 C 10.648438 -0.0703125 9.976562 -0.316406 9.34375 -0.703125 C 8.71875 -1.085938 8.191406 -1.707031 7.765625 -2.5625 C 6.859375 -1.363281 5.75 -0.601562 4.4375 -0.28125 C 3.132812 0.0390625 1.65625 0.203125 0 0.203125 Z M 20.5625 -24.59375 C 19.863281 -24.59375 19.273438 -24.847656 18.796875 -25.359375 C 18.316406 -25.867188 18.078125 -26.46875 18.078125 -27.15625 C 18.078125 -27.851562 18.316406 -28.441406 18.796875 -28.921875 C 19.273438 -29.398438 19.863281 -29.640625 20.5625 -29.640625 C 21.25 -29.640625 21.832031 -29.398438 22.3125 -28.921875 C 22.800781 -28.441406 23.046875 -27.851562 23.046875 -27.15625 C 23.046875 -26.46875 22.800781 -25.867188 22.3125 -25.359375 C 21.832031 -24.847656 21.25 -24.59375 20.5625 -24.59375 Z M 17.34375 -19.3125 C 16.65625 -19.3125 16.070312 -19.5625 15.59375 -20.0625 C 15.113281 -20.570312 14.875 -21.175781 14.875 -21.875 C 14.875 -22.570312 15.113281 -23.160156 15.59375 -23.640625 C 16.070312 -24.117188 16.65625 -24.359375 17.34375 -24.359375 C 18.039062 -24.359375 18.628906 -24.117188 19.109375 -23.640625 C 19.585938 -23.160156 19.828125 -22.570312 19.828125 -21.875 C 19.828125 -21.175781 19.585938 -20.570312 19.109375 -20.0625 C 18.628906 -19.5625 18.039062 -19.3125 17.34375 -19.3125 Z M 23.5625 -19.3125 C 22.894531 -19.3125 22.3125 -19.5625 21.8125 -20.0625 C 21.320312 -20.570312 21.078125 -21.175781 21.078125 -21.875 C 21.078125 -22.570312 21.320312 -23.160156 21.8125 -23.640625 C 22.3125 -24.117188 22.894531 -24.359375 23.5625 -24.359375 C 24.257812 -24.359375 24.847656 -24.117188 25.328125 -23.640625 C 25.804688 -23.160156 26.046875 -22.570312 26.046875 -21.875 C 26.046875 -21.175781 25.804688 -20.570312 25.328125 -20.0625 C 24.847656 -19.5625 24.257812 -19.3125 23.5625 -19.3125 Z M 23.5625 -19.3125 "/></g></g></g><g fill="#ffffff" fill-opacity="1"><g transform="translate(335.34664, 50.780079)"><g><path d="M 0 0.203125 L 0.40625 -5.40625 C 2 -5.40625 3.222656 -5.484375 4.078125 -5.640625 C 4.941406 -5.804688 5.539062 -6.109375 5.875 -6.546875 C 6.207031 -6.992188 6.375 -7.628906 6.375 -8.453125 C 6.375 -9.203125 6.269531 -10.097656 6.0625 -11.140625 C 5.863281 -12.179688 5.601562 -13.253906 5.28125 -14.359375 C 4.96875 -15.472656 4.648438 -16.507812 4.328125 -17.46875 L 9.859375 -18.984375 C 10.179688 -18.078125 10.507812 -17.019531 10.84375 -15.8125 C 11.175781 -14.613281 11.445312 -13.375 11.65625 -12.09375 C 11.875 -10.8125 11.984375 -9.597656 11.984375 -8.453125 C 11.984375 -6.640625 11.6875 -5.164062 11.09375 -4.03125 C 10.507812 -2.894531 9.6875 -2.019531 8.625 -1.40625 C 7.570312 -0.789062 6.3125 -0.367188 4.84375 -0.140625 C 3.375 0.0859375 1.757812 0.203125 0 0.203125 Z M 3.921875 -22.265625 C 3.148438 -22.265625 2.488281 -22.535156 1.9375 -23.078125 C 1.394531 -23.628906 1.125 -24.28125 1.125 -25.03125 C 1.125 -25.8125 1.394531 -26.476562 1.9375 -27.03125 C 2.488281 -27.59375 3.148438 -27.875 3.921875 -27.875 C 4.671875 -27.875 5.3125 -27.59375 5.84375 -27.03125 C 6.382812 -26.476562 6.65625 -25.8125 6.65625 -25.03125 C 6.65625 -24.28125 6.382812 -23.628906 5.84375 -23.078125 C 5.3125 -22.535156 4.671875 -22.265625 3.921875 -22.265625 Z M 10.859375 -22.234375 C 10.078125 -22.234375 9.410156 -22.5 8.859375 -23.03125 C 8.316406 -23.5625 8.046875 -24.21875 8.046875 -25 C 8.046875 -25.769531 8.316406 -26.4375 8.859375 -27 C 9.410156 -27.5625 10.078125 -27.84375 10.859375 -27.84375 C 11.609375 -27.84375 12.25 -27.5625 12.78125 -27 C 13.3125 -26.4375 13.578125 -25.769531 13.578125 -25 C 13.578125 -24.21875 13.3125 -23.5625 12.78125 -23.03125 C 12.25 -22.5 11.609375 -22.234375 10.859375 -22.234375 Z M 10.859375 -22.234375 "/></g></g></g><g fill="#ffffff" fill-opacity="1"><g transform="translate(24.429045, 50.780079)"><g><path d="M 0.640625 9.25 L -1.40625 4.28125 C 0.488281 3.613281 2.171875 2.832031 3.640625 1.9375 C 5.109375 1.039062 6.265625 0.015625 7.109375 -1.140625 C 7.953125 -2.304688 8.375 -3.609375 8.375 -5.046875 C 8.375 -6.171875 8.117188 -7.398438 7.609375 -8.734375 C 7.097656 -10.066406 6.484375 -11.425781 5.765625 -12.8125 L 11.015625 -15.34375 C 11.472656 -14.519531 11.882812 -13.628906 12.25 -12.671875 C 12.625 -11.722656 12.929688 -10.875 13.171875 -10.125 C 13.421875 -9.382812 13.582031 -8.878906 13.65625 -8.609375 C 14.03125 -7.328125 14.546875 -6.472656 15.203125 -6.046875 C 15.859375 -5.617188 16.921875 -5.40625 18.390625 -5.40625 C 19.378906 -5.40625 20.097656 -5.144531 20.546875 -4.625 C 21.003906 -4.101562 21.234375 -3.457031 21.234375 -2.6875 C 21.234375 -1.851562 20.953125 -1.160156 20.390625 -0.609375 C 19.828125 -0.0664062 19.023438 0.203125 17.984375 0.203125 C 15.953125 0.203125 14.40625 -0.34375 13.34375 -1.4375 C 12.882812 0.21875 12.019531 1.742188 10.75 3.140625 C 9.488281 4.546875 7.972656 5.769531 6.203125 6.8125 C 4.441406 7.851562 2.585938 8.664062 0.640625 9.25 Z M 0.640625 9.25 "/></g></g></g><g fill="#ffffff" fill-opacity="1"><g transform="translate(42.452438, 50.780079)"><g><path d="M 0 0.203125 L 0.40625 -5.40625 C 1.414062 -5.40625 2.21875 -5.5 2.8125 -5.6875 C 3.414062 -5.875 3.898438 -6.253906 4.265625 -6.828125 C 4.628906 -7.398438 4.9375 -8.25 5.1875 -9.375 C 5.4375 -10.5 5.695312 -11.992188 5.96875 -13.859375 L 11.21875 -12.984375 C 11.113281 -12.367188 10.992188 -11.632812 10.859375 -10.78125 C 10.722656 -9.925781 10.65625 -9.132812 10.65625 -8.40625 C 10.65625 -7.769531 10.796875 -7.222656 11.078125 -6.765625 C 11.359375 -6.316406 11.863281 -5.976562 12.59375 -5.75 C 13.332031 -5.519531 14.394531 -5.40625 15.78125 -5.40625 C 16.800781 -5.40625 17.523438 -5.144531 17.953125 -4.625 C 18.378906 -4.101562 18.59375 -3.457031 18.59375 -2.6875 C 18.59375 -1.851562 18.316406 -1.160156 17.765625 -0.609375 C 17.222656 -0.0664062 16.429688 0.203125 15.390625 0.203125 C 13.242188 0.203125 11.578125 -0.0195312 10.390625 -0.46875 C 9.203125 -0.925781 8.359375 -1.742188 7.859375 -2.921875 C 6.867188 -1.535156 5.695312 -0.664062 4.34375 -0.3125 C 3 0.03125 1.550781 0.203125 0 0.203125 Z M 7.203125 8.765625 C 6.515625 8.765625 5.921875 8.523438 5.421875 8.046875 C 4.929688 7.566406 4.6875 6.976562 4.6875 6.28125 C 4.6875 5.59375 4.929688 4.992188 5.421875 4.484375 C 5.921875 3.972656 6.515625 3.71875 7.203125 3.71875 C 7.878906 3.71875 8.46875 3.972656 8.96875 4.484375 C 9.476562 4.992188 9.734375 5.59375 9.734375 6.28125 C 9.734375 6.976562 9.476562 7.566406 8.96875 8.046875 C 8.46875 8.523438 7.878906 8.765625 7.203125 8.765625 Z M 7.203125 15.625 C 6.515625 15.625 5.921875 15.382812 5.421875 14.90625 C 4.929688 14.425781 4.6875 13.835938 4.6875 13.140625 C 4.6875 12.441406 4.929688 11.835938 5.421875 11.328125 C 5.921875 10.828125 6.515625 10.578125 7.203125 10.578125 C 7.878906 10.578125 8.46875 10.828125 8.96875 11.328125 C 9.476562 11.835938 9.734375 12.441406 9.734375 13.140625 C 9.734375 13.835938 9.476562 14.425781 8.96875 14.90625 C 8.46875 15.382812 7.878906 15.625 7.203125 15.625 Z M 7.203125 15.625 "/></g></g></g><g fill="#ffffff" fill-opacity="1"><g transform="translate(57.832398, 50.780079)"><g><path d="M 0 0.203125 L 0.40625 -5.40625 L 11.9375 -5.40625 C 12.957031 -5.40625 13.6875 -5.144531 14.125 -4.625 C 14.5625 -4.101562 14.78125 -3.457031 14.78125 -2.6875 C 14.78125 -1.851562 14.5 -1.160156 13.9375 -0.609375 C 13.375 -0.0664062 12.570312 0.203125 11.53125 0.203125 Z M 0 0.203125 "/></g></g></g><g fill="#ffffff" fill-opacity="1"><g transform="translate(69.407421, 50.780079)"><g><path d="M 13.984375 7.53125 C 11.609375 7.53125 9.4375 7.179688 7.46875 6.484375 C 5.507812 5.796875 3.945312 4.703125 2.78125 3.203125 C 1.625 1.710938 1.046875 -0.25 1.046875 -2.6875 C 1.046875 -3.59375 1.164062 -4.710938 1.40625 -6.046875 C 1.644531 -7.378906 2.269531 -9.144531 3.28125 -11.34375 L 8.171875 -9.453125 C 7.585938 -8.015625 7.1875 -6.894531 6.96875 -6.09375 C 6.757812 -5.289062 6.65625 -4.472656 6.65625 -3.640625 C 6.65625 -1.859375 7.394531 -0.488281 8.875 0.46875 C 10.351562 1.4375 12.375 1.921875 14.9375 1.921875 C 18.25 1.921875 20.726562 1.539062 22.375 0.78125 C 24.019531 0.0195312 25.054688 -0.957031 25.484375 -2.15625 C 25.554688 -2.34375 25.625 -2.53125 25.6875 -2.71875 C 24.5625 -2.40625 23.4375 -2.25 22.3125 -2.25 C 20.207031 -2.25 18.539062 -2.691406 17.3125 -3.578125 C 16.082031 -4.472656 15.46875 -6.097656 15.46875 -8.453125 C 15.46875 -9.578125 15.664062 -10.707031 16.0625 -11.84375 C 16.46875 -12.976562 17.03125 -14.023438 17.75 -14.984375 C 18.46875 -15.941406 19.332031 -16.707031 20.34375 -17.28125 C 21.363281 -17.851562 22.488281 -18.140625 23.71875 -18.140625 C 25.425781 -18.140625 26.878906 -17.640625 28.078125 -16.640625 C 29.285156 -15.640625 30.203125 -14.316406 30.828125 -12.671875 C 31.453125 -11.035156 31.765625 -9.253906 31.765625 -7.328125 C 31.765625 -5.535156 31.582031 -3.960938 31.21875 -2.609375 C 30.863281 -1.265625 30.40625 -0.0703125 29.84375 0.96875 C 28.539062 3.3125 26.546875 4.988281 23.859375 6 C 21.171875 7.019531 17.878906 7.53125 13.984375 7.53125 Z M 20.953125 -9.53125 C 20.953125 -8.300781 21.847656 -7.6875 23.640625 -7.6875 C 24.015625 -7.6875 24.414062 -7.710938 24.84375 -7.765625 C 25.269531 -7.828125 25.695312 -7.921875 26.125 -8.046875 C 26.039062 -9.492188 25.769531 -10.617188 25.3125 -11.421875 C 24.863281 -12.222656 24.253906 -12.625 23.484375 -12.625 C 22.753906 -12.625 22.148438 -12.28125 21.671875 -11.59375 C 21.191406 -10.914062 20.953125 -10.226562 20.953125 -9.53125 Z M 24.078125 -27.15625 C 23.378906 -27.15625 22.789062 -27.410156 22.3125 -27.921875 C 21.832031 -28.429688 21.59375 -29.03125 21.59375 -29.71875 C 21.59375 -30.414062 21.832031 -31.003906 22.3125 -31.484375 C 22.789062 -31.960938 23.378906 -32.203125 24.078125 -32.203125 C 24.765625 -32.203125 25.347656 -31.960938 25.828125 -31.484375 C 26.316406 -31.003906 26.5625 -30.414062 26.5625 -29.71875 C 26.5625 -29.03125 26.316406 -28.429688 25.828125 -27.921875 C 25.347656 -27.410156 24.765625 -27.15625 24.078125 -27.15625 Z M 20.859375 -21.875 C 20.171875 -21.875 19.585938 -22.125 19.109375 -22.625 C 18.628906 -23.132812 18.390625 -23.738281 18.390625 -24.4375 C 18.390625 -25.132812 18.628906 -25.722656 19.109375 -26.203125 C 19.585938 -26.679688 20.171875 -26.921875 20.859375 -26.921875 C 21.554688 -26.921875 22.144531 -26.679688 22.625 -26.203125 C 23.101562 -25.722656 23.34375 -25.132812 23.34375 -24.4375 C 23.34375 -23.738281 23.101562 -23.132812 22.625 -22.625 C 22.144531 -22.125 21.554688 -21.875 20.859375 -21.875 Z M 27.078125 -21.875 C 26.410156 -21.875 25.828125 -22.125 25.328125 -22.625 C 24.835938 -23.132812 24.59375 -23.738281 24.59375 -24.4375 C 24.59375 -25.132812 24.835938 -25.722656 25.328125 -26.203125 C 25.828125 -26.679688 26.410156 -26.921875 27.078125 -26.921875 C 27.773438 -26.921875 28.363281 -26.679688 28.84375 -26.203125 C 29.320312 -25.722656 29.5625 -25.132812 29.5625 -24.4375 C 29.5625 -23.738281 29.320312 -23.132812 28.84375 -22.625 C 28.363281 -22.125 27.773438 -21.875 27.078125 -21.875 Z M 27.078125 -21.875 "/></g></g></g><g fill="#ffffff" fill-opacity="1"><g transform="translate(102.730668, 50.780079)"><g><path d="M 0 0.203125 L 0.40625 -5.40625 L 11.9375 -5.40625 C 12.957031 -5.40625 13.6875 -5.144531 14.125 -4.625 C 14.5625 -4.101562 14.78125 -3.457031 14.78125 -2.6875 C 14.78125 -1.851562 14.5 -1.160156 13.9375 -0.609375 C 13.375 -0.0664062 12.570312 0.203125 11.53125 0.203125 Z M 0 0.203125 "/></g></g></g><g fill="#ffffff" fill-opacity="1"><g transform="translate(114.305691, 50.780079)"><g><path d="M 0 0.203125 L 0.40625 -5.40625 C 1.28125 -5.40625 2 -5.476562 2.5625 -5.625 C 3.125 -5.769531 3.582031 -6.101562 3.9375 -6.625 C 4.300781 -7.144531 4.625 -7.929688 4.90625 -8.984375 C 5.1875 -10.046875 5.5 -11.484375 5.84375 -13.296875 L 11.0625 -12.34375 C 10.945312 -11.75 10.800781 -11.007812 10.625 -10.125 C 10.457031 -9.25 10.375 -8.492188 10.375 -7.859375 C 10.375 -7.109375 10.609375 -6.507812 11.078125 -6.0625 C 11.546875 -5.625 12.445312 -5.40625 13.78125 -5.40625 C 14.476562 -5.40625 15.070312 -5.476562 15.5625 -5.625 C 16.0625 -5.769531 16.488281 -6.101562 16.84375 -6.625 C 17.207031 -7.144531 17.53125 -7.957031 17.8125 -9.0625 C 18.09375 -10.175781 18.363281 -11.679688 18.625 -13.578125 L 23.921875 -12.734375 C 23.753906 -11.804688 23.59375 -10.820312 23.4375 -9.78125 C 23.28125 -8.738281 23.203125 -7.945312 23.203125 -7.40625 C 23.203125 -6.875 23.445312 -6.40625 23.9375 -6 C 24.425781 -5.601562 25.421875 -5.40625 26.921875 -5.40625 C 29.273438 -5.40625 30.453125 -6.460938 30.453125 -8.578125 C 30.453125 -9.484375 30.414062 -10.515625 30.34375 -11.671875 C 30.28125 -12.835938 30.140625 -14.289062 29.921875 -16.03125 L 35.09375 -16.421875 C 35.28125 -14.128906 35.492188 -12.257812 35.734375 -10.8125 C 35.972656 -9.375 36.300781 -8.257812 36.71875 -7.46875 C 37.132812 -6.6875 37.695312 -6.144531 38.40625 -5.84375 C 39.113281 -5.550781 40.039062 -5.40625 41.1875 -5.40625 C 42.195312 -5.40625 42.921875 -5.144531 43.359375 -4.625 C 43.804688 -4.101562 44.03125 -3.457031 44.03125 -2.6875 C 44.03125 -1.851562 43.753906 -1.160156 43.203125 -0.609375 C 42.660156 -0.0664062 41.851562 0.203125 40.78125 0.203125 C 39.90625 0.203125 39 0.109375 38.0625 -0.078125 C 37.125 -0.265625 36.25 -0.648438 35.4375 -1.234375 C 34.625 -1.828125 33.960938 -2.710938 33.453125 -3.890625 C 32.867188 -2.253906 32.015625 -1.160156 30.890625 -0.609375 C 29.765625 -0.0664062 28.304688 0.203125 26.515625 0.203125 C 25.097656 0.203125 23.867188 -0.015625 22.828125 -0.453125 C 21.785156 -0.898438 21.050781 -1.65625 20.625 -2.71875 C 20.125 -1.863281 19.550781 -1.226562 18.90625 -0.8125 C 18.269531 -0.40625 17.507812 -0.132812 16.625 0 C 15.738281 0.132812 14.695312 0.203125 13.5 0.203125 C 12.78125 0.203125 12.066406 0.144531 11.359375 0.03125 C 10.648438 -0.0703125 9.976562 -0.316406 9.34375 -0.703125 C 8.71875 -1.085938 8.191406 -1.707031 7.765625 -2.5625 C 6.859375 -1.363281 5.75 -0.601562 4.4375 -0.28125 C 3.132812 0.0390625 1.65625 0.203125 0 0.203125 Z M 20.5625 -24.59375 C 19.863281 -24.59375 19.273438 -24.847656 18.796875 -25.359375 C 18.316406 -25.867188 18.078125 -26.46875 18.078125 -27.15625 C 18.078125 -27.851562 18.316406 -28.441406 18.796875 -28.921875 C 19.273438 -29.398438 19.863281 -29.640625 20.5625 -29.640625 C 21.25 -29.640625 21.832031 -29.398438 22.3125 -28.921875 C 22.800781 -28.441406 23.046875 -27.851562 23.046875 -27.15625 C 23.046875 -26.46875 22.800781 -25.867188 22.3125 -25.359375 C 21.832031 -24.847656 21.25 -24.59375 20.5625 -24.59375 Z M 17.34375 -19.3125 C 16.65625 -19.3125 16.070312 -19.5625 15.59375 -20.0625 C 15.113281 -20.570312 14.875 -21.175781 14.875 -21.875 C 14.875 -22.570312 15.113281 -23.160156 15.59375 -23.640625 C 16.070312 -24.117188 16.65625 -24.359375 17.34375 -24.359375 C 18.039062 -24.359375 18.628906 -24.117188 19.109375 -23.640625 C 19.585938 -23.160156 19.828125 -22.570312 19.828125 -21.875 C 19.828125 -21.175781 19.585938 -20.570312 19.109375 -20.0625 C 18.628906 -19.5625 18.039062 -19.3125 17.34375 -19.3125 Z M 23.5625 -19.3125 C 22.894531 -19.3125 22.3125 -19.5625 21.8125 -20.0625 C 21.320312 -20.570312 21.078125 -21.175781 21.078125 -21.875 C 21.078125 -22.570312 21.320312 -23.160156 21.8125 -23.640625 C 22.3125 -24.117188 22.894531 -24.359375 23.5625 -24.359375 C 24.257812 -24.359375 24.847656 -24.117188 25.328125 -23.640625 C 25.804688 -23.160156 26.046875 -22.570312 26.046875 -21.875 C 26.046875 -21.175781 25.804688 -20.570312 25.328125 -20.0625 C 24.847656 -19.5625 24.257812 -19.3125 23.5625 -19.3125 Z M 23.5625 -19.3125 "/></g></g></g><g fill="#ffffff" fill-opacity="1"><g transform="translate(155.11866, 50.780079)"><g><path d="M 0 0.203125 L 0.40625 -5.40625 C 2 -5.40625 3.222656 -5.484375 4.078125 -5.640625 C 4.941406 -5.804688 5.539062 -6.109375 5.875 -6.546875 C 6.207031 -6.992188 6.375 -7.628906 6.375 -8.453125 C 6.375 -9.203125 6.269531 -10.097656 6.0625 -11.140625 C 5.863281 -12.179688 5.601562 -13.253906 5.28125 -14.359375 C 4.96875 -15.472656 4.648438 -16.507812 4.328125 -17.46875 L 9.859375 -18.984375 C 10.179688 -18.078125 10.507812 -17.019531 10.84375 -15.8125 C 11.175781 -14.613281 11.445312 -13.375 11.65625 -12.09375 C 11.875 -10.8125 11.984375 -9.597656 11.984375 -8.453125 C 11.984375 -6.640625 11.6875 -5.164062 11.09375 -4.03125 C 10.507812 -2.894531 9.6875 -2.019531 8.625 -1.40625 C 7.570312 -0.789062 6.3125 -0.367188 4.84375 -0.140625 C 3.375 0.0859375 1.757812 0.203125 0 0.203125 Z M 4.296875 -27.5625 C 3.597656 -27.5625 3 -27.800781 2.5 -28.28125 C 2.007812 -28.757812 1.765625 -29.347656 1.765625 -30.046875 C 1.765625 -30.734375 2.007812 -31.332031 2.5 -31.84375 C 3 -32.351562 3.597656 -32.609375 4.296875 -32.609375 C 4.984375 -32.609375 5.566406 -32.351562 6.046875 -31.84375 C 6.535156 -31.332031 6.78125 -30.734375 6.78125 -30.046875 C 6.78125 -29.347656 6.535156 -28.757812 6.046875 -28.28125 C 5.566406 -27.800781 4.984375 -27.5625 4.296875 -27.5625 Z M 10.546875 -27.5625 C 9.847656 -27.5625 9.25 -27.800781 8.75 -28.28125 C 8.257812 -28.757812 8.015625 -29.347656 8.015625 -30.046875 C 8.015625 -30.734375 8.257812 -31.332031 8.75 -31.84375 C 9.25 -32.351562 9.847656 -32.609375 10.546875 -32.609375 C 11.234375 -32.609375 11.816406 -32.351562 12.296875 -31.84375 C 12.785156 -31.332031 13.03125 -30.734375 13.03125 -30.046875 C 13.03125 -29.347656 12.785156 -28.757812 12.296875 -28.28125 C 11.816406 -27.800781 11.234375 -27.5625 10.546875 -27.5625 Z M 7.34375 -22.265625 C 6.644531 -22.265625 6.046875 -22.503906 5.546875 -22.984375 C 5.054688 -23.472656 4.8125 -24.0625 4.8125 -24.75 C 4.8125 -25.445312 5.054688 -26.046875 5.546875 -26.546875 C 6.046875 -27.054688 6.644531 -27.3125 7.34375 -27.3125 C 8.03125 -27.3125 8.613281 -27.054688 9.09375 -26.546875 C 9.582031 -26.046875 9.828125 -25.445312 9.828125 -24.75 C 9.828125 -24.0625 9.582031 -23.472656 9.09375 -22.984375 C 8.613281 -22.503906 8.03125 -22.265625 7.34375 -22.265625 Z M 7.34375 -22.265625 "/></g></g></g></svg>