<svg xmlns="http://www.w3.org/2000/svg" xmlns:xlink="http://www.w3.org/1999/xlink" width="500" zoomAndPan="magnify" viewBox="0 0 375 71.249999" height="95" preserveAspectRatio="xMidYMid meet" version="1.0"><defs><g/><clipPath id="e7ad4f17e4"><path d="M 170.621094 15.355469 L 211.085938 15.355469 L 211.085938 54.378906 L 170.621094 54.378906 Z M 170.621094 15.355469 " clip-rule="nonzero"/></clipPath></defs><g clip-path="url(#e7ad4f17e4)"><path fill="#ffffff" d="M 170.796875 34.515625 C 170.621094 34.691406 170.621094 34.953125 170.796875 35.128906 L 189.667969 54.148438 C 189.757812 54.234375 189.847656 54.277344 189.980469 54.277344 L 192.8125 54.367188 C 192.945312 54.367188 193.035156 54.324219 193.125 54.234375 C 193.210938 54.148438 193.257812 54.058594 193.257812 53.929688 L 193.257812 46.480469 C 193.257812 46.347656 193.210938 46.261719 193.125 46.171875 L 181.695312 34.78125 L 193.210938 23.476562 C 193.300781 23.386719 193.347656 23.300781 193.347656 23.167969 L 193.347656 17.601562 C 193.347656 17.472656 193.257812 17.296875 193.125 17.253906 L 190.289062 15.457031 C 190.15625 15.367188 190.023438 15.367188 189.890625 15.414062 C 189.847656 15.414062 189.757812 15.457031 189.714844 15.5 Z M 210.976562 54.367188 L 208.097656 54.277344 C 207.964844 54.277344 207.875 54.234375 207.785156 54.148438 L 188.917969 35.128906 C 188.738281 34.953125 188.738281 34.691406 188.917969 34.515625 L 207.785156 15.5 C 207.832031 15.457031 207.875 15.414062 207.964844 15.414062 C 208.097656 15.367188 208.273438 15.367188 208.363281 15.457031 L 211.199219 17.253906 C 211.332031 17.296875 211.417969 17.472656 211.417969 17.601562 L 211.417969 23.167969 C 211.417969 23.300781 211.375 23.386719 211.285156 23.476562 L 199.855469 34.78125 L 211.285156 46.171875 C 211.375 46.261719 211.417969 46.347656 211.417969 46.480469 L 211.417969 53.929688 C 211.417969 54.058594 211.375 54.148438 211.285156 54.234375 C 211.199219 54.324219 211.109375 54.367188 210.976562 54.367188 Z M 210.976562 54.367188 " fill-opacity="1" fill-rule="nonzero"/></g><g fill="#ffffff" fill-opacity="1"><g transform="translate(232.707863, 50.566159)"><g><path d="M 14 9.46875 C 11.382812 9.46875 9.109375 9.066406 7.171875 8.265625 C 5.242188 7.460938 3.742188 6.28125 2.671875 4.71875 C 1.597656 3.15625 1.0625 1.203125 1.0625 -1.140625 C 1.0625 -2.066406 1.191406 -3.25 1.453125 -4.6875 C 1.710938 -6.132812 2.289062 -7.851562 3.1875 -9.84375 L 8.203125 -8.078125 C 7.742188 -6.804688 7.390625 -5.710938 7.140625 -4.796875 C 6.898438 -3.878906 6.78125 -2.988281 6.78125 -2.125 C 6.78125 -1.03125 7.023438 -0.046875 7.515625 0.828125 C 8.003906 1.710938 8.789062 2.421875 9.875 2.953125 C 10.96875 3.484375 12.398438 3.75 14.171875 3.75 C 16.347656 3.75 18.046875 3.4375 19.265625 2.8125 C 20.492188 2.1875 21.351562 1.34375 21.84375 0.28125 C 22.332031 -0.78125 22.578125 -1.960938 22.578125 -3.265625 C 22.578125 -4.378906 22.378906 -5.722656 21.984375 -7.296875 C 21.585938 -8.878906 21.078125 -10.625 20.453125 -12.53125 L 26.171875 -14 C 26.554688 -12.425781 26.863281 -11.203125 27.09375 -10.328125 C 27.320312 -9.453125 27.503906 -8.800781 27.640625 -8.375 C 28.046875 -7.144531 28.585938 -6.347656 29.265625 -5.984375 C 29.953125 -5.617188 30.757812 -5.445312 31.6875 -5.46875 C 32.195312 -5.46875 32.671875 -5.546875 33.109375 -5.703125 C 33.546875 -5.867188 33.945312 -6.21875 34.3125 -6.75 C 34.6875 -7.28125 35.019531 -8.101562 35.3125 -9.21875 C 35.613281 -10.34375 35.890625 -11.882812 36.140625 -13.84375 L 41.515625 -12.984375 C 41.359375 -12.023438 41.195312 -11.015625 41.03125 -9.953125 C 40.863281 -8.898438 40.78125 -8.085938 40.78125 -7.515625 C 40.78125 -6.972656 41.03125 -6.503906 41.53125 -6.109375 C 42.039062 -5.710938 43.046875 -5.515625 44.546875 -5.515625 C 45.660156 -5.515625 46.539062 -5.695312 47.1875 -6.0625 C 47.84375 -6.425781 48.171875 -7.207031 48.171875 -8.40625 C 48.171875 -9.445312 47.941406 -10.78125 47.484375 -12.40625 C 47.023438 -14.039062 46.476562 -15.757812 45.84375 -17.5625 L 51.609375 -19.265625 C 52.046875 -18.097656 52.429688 -16.851562 52.765625 -15.53125 C 53.109375 -14.21875 53.378906 -12.929688 53.578125 -11.671875 C 53.785156 -10.421875 53.890625 -9.347656 53.890625 -8.453125 C 53.890625 -5.535156 53.054688 -3.363281 51.390625 -1.9375 C 49.734375 -0.507812 47.492188 0.203125 44.671875 0.203125 C 43.140625 0.203125 41.804688 -0.046875 40.671875 -0.546875 C 39.546875 -1.054688 38.738281 -1.769531 38.25 -2.6875 C 37.539062 -1.46875 36.660156 -0.679688 35.609375 -0.328125 C 34.566406 0.0234375 33.515625 0.203125 32.453125 0.203125 C 31.585938 0.203125 30.757812 0.09375 29.96875 -0.125 C 29.175781 -0.34375 28.492188 -0.695312 27.921875 -1.1875 C 27.566406 2.1875 26.15625 4.804688 23.6875 6.671875 C 21.226562 8.535156 18 9.46875 14 9.46875 Z M 14 9.46875 "/></g></g></g><g fill="#ffffff" fill-opacity="1"><g transform="translate(288.643081, 50.566159)"><g><path d="M 8.90625 -5.515625 C 10.726562 -5.515625 11.9375 -5.75 12.53125 -6.21875 C 13.132812 -6.695312 13.4375 -7.238281 13.4375 -7.84375 C 13.4375 -8.488281 13.25 -9.25 12.875 -10.125 C 12.507812 -11 12.054688 -11.910156 11.515625 -12.859375 C 10.972656 -13.816406 10.398438 -14.726562 9.796875 -15.59375 C 9.203125 -16.46875 8.6875 -17.226562 8.25 -17.875 L 13.109375 -21.109375 C 14.878906 -18.742188 16.273438 -16.453125 17.296875 -14.234375 C 18.316406 -12.015625 18.988281 -10.207031 19.3125 -8.8125 C 19.613281 -7.507812 20.1875 -6.632812 21.03125 -6.1875 C 21.875 -5.738281 22.757812 -5.515625 23.6875 -5.515625 C 24.71875 -5.515625 25.457031 -5.25 25.90625 -4.71875 C 26.351562 -4.1875 26.578125 -3.523438 26.578125 -2.734375 C 26.578125 -1.890625 26.296875 -1.1875 25.734375 -0.625 C 25.179688 -0.0703125 24.359375 0.203125 23.265625 0.203125 C 20.710938 0.203125 18.8125 -0.582031 17.5625 -2.15625 C 16.820312 -1.457031 15.785156 -0.878906 14.453125 -0.421875 C 13.117188 0.0234375 11.539062 0.25 9.71875 0.25 C 8.46875 0.25 7.066406 0.0976562 5.515625 -0.203125 C 3.960938 -0.503906 2.597656 -0.984375 1.421875 -1.640625 L 3.421875 -6.8125 C 4.429688 -6.351562 5.40625 -6.019531 6.34375 -5.8125 C 7.28125 -5.613281 8.132812 -5.515625 8.90625 -5.515625 Z M 8.90625 -5.515625 "/></g></g></g><g fill="#ffffff" fill-opacity="1"><g transform="translate(311.956219, 50.566159)"><g><path d="M 0 0.203125 L 0.40625 -5.46875 C 1.226562 -5.445312 2 -5.453125 2.71875 -5.484375 C 3.4375 -5.523438 4.109375 -5.578125 4.734375 -5.640625 C 4.140625 -6.347656 3.644531 -7.140625 3.25 -8.015625 C 2.851562 -8.898438 2.65625 -9.90625 2.65625 -11.03125 C 2.65625 -12.71875 3.078125 -14.191406 3.921875 -15.453125 C 4.765625 -16.722656 5.832031 -17.707031 7.125 -18.40625 C 8.414062 -19.113281 9.742188 -19.46875 11.109375 -19.46875 C 12.742188 -19.46875 14.15625 -19.085938 15.34375 -18.328125 C 16.539062 -17.566406 17.472656 -16.566406 18.140625 -15.328125 C 18.816406 -14.085938 19.15625 -12.757812 19.15625 -11.34375 C 19.15625 -10.207031 18.960938 -9.160156 18.578125 -8.203125 C 18.191406 -7.253906 17.6875 -6.410156 17.0625 -5.671875 C 17.882812 -5.617188 18.707031 -5.578125 19.53125 -5.546875 C 20.363281 -5.523438 21.175781 -5.515625 21.96875 -5.515625 C 23 -5.515625 23.738281 -5.25 24.1875 -4.71875 C 24.632812 -4.1875 24.859375 -3.523438 24.859375 -2.734375 C 24.859375 -1.890625 24.570312 -1.1875 24 -0.625 C 23.4375 -0.0703125 22.625 0.203125 21.5625 0.203125 C 19.539062 0.203125 17.578125 0.0664062 15.671875 -0.203125 C 13.765625 -0.472656 12.109375 -0.867188 10.703125 -1.390625 C 9.691406 -0.953125 8.242188 -0.566406 6.359375 -0.234375 C 4.484375 0.0859375 2.363281 0.234375 0 0.203125 Z M 8.28125 -10.609375 C 8.28125 -9.929688 8.472656 -9.289062 8.859375 -8.6875 C 9.242188 -8.09375 9.773438 -7.535156 10.453125 -7.015625 C 11.429688 -7.453125 12.1875 -8 12.71875 -8.65625 C 13.25 -9.3125 13.515625 -10.019531 13.515625 -10.78125 C 13.515625 -11.507812 13.289062 -12.226562 12.84375 -12.9375 C 12.394531 -13.644531 11.773438 -14 10.984375 -14 C 10.222656 -14 9.582031 -13.671875 9.0625 -13.015625 C 8.539062 -12.367188 8.28125 -11.566406 8.28125 -10.609375 Z M 7.640625 -23.234375 C 6.847656 -23.234375 6.171875 -23.507812 5.609375 -24.0625 C 5.054688 -24.625 4.78125 -25.285156 4.78125 -26.046875 C 4.78125 -26.835938 5.054688 -27.519531 5.609375 -28.09375 C 6.171875 -28.664062 6.847656 -28.953125 7.640625 -28.953125 C 8.398438 -28.953125 9.050781 -28.664062 9.59375 -28.09375 C 10.144531 -27.519531 10.421875 -26.835938 10.421875 -26.046875 C 10.421875 -25.285156 10.144531 -24.625 9.59375 -24.0625 C 9.050781 -23.507812 8.398438 -23.234375 7.640625 -23.234375 Z M 14.703125 -23.1875 C 13.910156 -23.1875 13.234375 -23.457031 12.671875 -24 C 12.117188 -24.550781 11.84375 -25.222656 11.84375 -26.015625 C 11.84375 -26.796875 12.117188 -27.472656 12.671875 -28.046875 C 13.234375 -28.617188 13.910156 -28.90625 14.703125 -28.90625 C 15.460938 -28.90625 16.113281 -28.617188 16.65625 -28.046875 C 17.207031 -27.472656 17.484375 -26.796875 17.484375 -26.015625 C 17.484375 -25.222656 17.207031 -24.550781 16.65625 -24 C 16.113281 -23.457031 15.460938 -23.1875 14.703125 -23.1875 Z M 14.703125 -23.1875 "/></g></g></g><g fill="#ffffff" fill-opacity="1"><g transform="translate(333.554556, 50.566159)"><g><path d="M 0 0.203125 L 0.40625 -5.515625 C 1.65625 -5.515625 2.550781 -5.640625 3.09375 -5.890625 C 3.644531 -6.148438 3.972656 -6.640625 4.078125 -7.359375 C 4.191406 -8.085938 4.222656 -9.144531 4.171875 -10.53125 L 3.421875 -29.890625 L 9.1875 -29.890625 L 10 -10.125 C 10.050781 -8.539062 9.988281 -7.113281 9.8125 -5.84375 C 9.632812 -4.582031 9.210938 -3.503906 8.546875 -2.609375 C 7.878906 -1.710938 6.859375 -1.019531 5.484375 -0.53125 C 4.109375 -0.0390625 2.28125 0.203125 0 0.203125 Z M 0 0.203125 "/></g></g></g><g fill="#ffffff" fill-opacity="1"><g transform="translate(345.680655, 50.566159)"><g><path d="M 3.265625 0 L 2.40625 -29.890625 L 8.125 -29.890625 L 8.984375 0 Z M 3.265625 0 "/></g></g></g><g fill="#ffffff" fill-opacity="1"><g transform="translate(12.305462, 50.566159)"><g><path d="M 14 9.46875 C 11.382812 9.46875 9.109375 9.066406 7.171875 8.265625 C 5.242188 7.460938 3.742188 6.28125 2.671875 4.71875 C 1.597656 3.15625 1.0625 1.203125 1.0625 -1.140625 C 1.0625 -2.066406 1.191406 -3.25 1.453125 -4.6875 C 1.710938 -6.132812 2.289062 -7.851562 3.1875 -9.84375 L 8.203125 -8.078125 C 7.742188 -6.804688 7.390625 -5.710938 7.140625 -4.796875 C 6.898438 -3.878906 6.78125 -2.988281 6.78125 -2.125 C 6.78125 -1.03125 7.023438 -0.046875 7.515625 0.828125 C 8.003906 1.710938 8.789062 2.421875 9.875 2.953125 C 10.96875 3.484375 12.398438 3.75 14.171875 3.75 C 16.347656 3.75 18.046875 3.4375 19.265625 2.8125 C 20.492188 2.1875 21.351562 1.34375 21.84375 0.28125 C 22.332031 -0.78125 22.578125 -1.960938 22.578125 -3.265625 C 22.578125 -4.378906 22.378906 -5.722656 21.984375 -7.296875 C 21.585938 -8.878906 21.078125 -10.625 20.453125 -12.53125 L 26.171875 -14 C 26.554688 -12.425781 26.863281 -11.203125 27.09375 -10.328125 C 27.320312 -9.453125 27.503906 -8.800781 27.640625 -8.375 C 28.046875 -7.144531 28.585938 -6.347656 29.265625 -5.984375 C 29.953125 -5.617188 30.757812 -5.445312 31.6875 -5.46875 C 32.195312 -5.46875 32.671875 -5.546875 33.109375 -5.703125 C 33.546875 -5.867188 33.945312 -6.21875 34.3125 -6.75 C 34.6875 -7.28125 35.019531 -8.101562 35.3125 -9.21875 C 35.613281 -10.34375 35.890625 -11.882812 36.140625 -13.84375 L 41.515625 -12.984375 C 41.359375 -12.023438 41.195312 -11.015625 41.03125 -9.953125 C 40.863281 -8.898438 40.78125 -8.085938 40.78125 -7.515625 C 40.78125 -6.972656 41.03125 -6.503906 41.53125 -6.109375 C 42.039062 -5.710938 43.046875 -5.515625 44.546875 -5.515625 C 45.660156 -5.515625 46.539062 -5.695312 47.1875 -6.0625 C 47.84375 -6.425781 48.171875 -7.207031 48.171875 -8.40625 C 48.171875 -9.445312 47.941406 -10.78125 47.484375 -12.40625 C 47.023438 -14.039062 46.476562 -15.757812 45.84375 -17.5625 L 51.609375 -19.265625 C 52.046875 -18.097656 52.429688 -16.851562 52.765625 -15.53125 C 53.109375 -14.21875 53.378906 -12.929688 53.578125 -11.671875 C 53.785156 -10.421875 53.890625 -9.347656 53.890625 -8.453125 C 53.890625 -5.535156 53.054688 -3.363281 51.390625 -1.9375 C 49.734375 -0.507812 47.492188 0.203125 44.671875 0.203125 C 43.140625 0.203125 41.804688 -0.046875 40.671875 -0.546875 C 39.546875 -1.054688 38.738281 -1.769531 38.25 -2.6875 C 37.539062 -1.46875 36.660156 -0.679688 35.609375 -0.328125 C 34.566406 0.0234375 33.515625 0.203125 32.453125 0.203125 C 31.585938 0.203125 30.757812 0.09375 29.96875 -0.125 C 29.175781 -0.34375 28.492188 -0.695312 27.921875 -1.1875 C 27.566406 2.1875 26.15625 4.804688 23.6875 6.671875 C 21.226562 8.535156 18 9.46875 14 9.46875 Z M 36 -19.671875 C 35.15625 -19.671875 34.441406 -19.957031 33.859375 -20.53125 C 33.273438 -21.101562 32.984375 -21.8125 32.984375 -22.65625 C 32.984375 -23.5 33.273438 -24.21875 33.859375 -24.8125 C 34.441406 -25.414062 35.15625 -25.71875 36 -25.71875 C 36.820312 -25.71875 37.523438 -25.414062 38.109375 -24.8125 C 38.691406 -24.21875 38.984375 -23.5 38.984375 -22.65625 C 38.984375 -21.8125 38.691406 -21.101562 38.109375 -20.53125 C 37.523438 -19.957031 36.820312 -19.671875 36 -19.671875 Z M 38.015625 9.59375 C 37.222656 9.59375 36.546875 9.316406 35.984375 8.765625 C 35.429688 8.222656 35.15625 7.5625 35.15625 6.78125 C 35.15625 5.988281 35.429688 5.296875 35.984375 4.703125 C 36.546875 4.117188 37.222656 3.828125 38.015625 3.828125 C 38.773438 3.828125 39.441406 4.117188 40.015625 4.703125 C 40.585938 5.296875 40.875 5.988281 40.875 6.78125 C 40.875 7.5625 40.585938 8.222656 40.015625 8.765625 C 39.441406 9.316406 38.773438 9.59375 38.015625 9.59375 Z M 38.015625 9.59375 "/></g></g></g><g fill="#ffffff" fill-opacity="1"><g transform="translate(68.24068, 50.566159)"><g><path d="M 1.015625 0 L 1.015625 -5.140625 L 9.0625 -5.140625 C 11.1875 -5.140625 12.875 -5.65625 14.125 -6.6875 C 15.375 -7.726562 16 -9.523438 16 -12.078125 C 16 -14.585938 15.375 -16.441406 14.125 -17.640625 C 12.875 -18.835938 11.1875 -19.4375 9.0625 -19.4375 L 1.015625 -19.4375 L 1.015625 -24.578125 L 9.46875 -24.578125 C 12.082031 -24.578125 14.347656 -24.070312 16.265625 -23.0625 C 18.191406 -22.0625 19.671875 -20.632812 20.703125 -18.78125 C 21.734375 -16.925781 22.25 -14.734375 22.25 -12.203125 C 22.25 -8.234375 21.117188 -5.207031 18.859375 -3.125 C 16.597656 -1.039062 13.46875 0 9.46875 0 Z M 1.015625 0 "/></g></g></g><g fill="#ffffff" fill-opacity="1"><g transform="translate(92.32957, 50.566159)"><g><path d="M 0 0.203125 L 0.40625 -5.515625 L 12.171875 -5.515625 C 13.203125 -5.515625 13.941406 -5.25 14.390625 -4.71875 C 14.835938 -4.1875 15.0625 -3.523438 15.0625 -2.734375 C 15.0625 -1.890625 14.773438 -1.1875 14.203125 -0.625 C 13.628906 -0.0703125 12.816406 0.203125 11.765625 0.203125 Z M 0 0.203125 "/></g></g></g><g fill="#ffffff" fill-opacity="1"><g transform="translate(104.129043, 50.566159)"><g><path d="M 0 0.203125 L 0.40625 -5.46875 C 1.226562 -5.445312 2 -5.453125 2.71875 -5.484375 C 3.4375 -5.523438 4.109375 -5.578125 4.734375 -5.640625 C 4.140625 -6.347656 3.644531 -7.140625 3.25 -8.015625 C 2.851562 -8.898438 2.65625 -9.90625 2.65625 -11.03125 C 2.65625 -12.71875 3.078125 -14.191406 3.921875 -15.453125 C 4.765625 -16.722656 5.832031 -17.707031 7.125 -18.40625 C 8.414062 -19.113281 9.742188 -19.46875 11.109375 -19.46875 C 12.742188 -19.46875 14.15625 -19.085938 15.34375 -18.328125 C 16.539062 -17.566406 17.472656 -16.566406 18.140625 -15.328125 C 18.816406 -14.085938 19.15625 -12.757812 19.15625 -11.34375 C 19.15625 -10.207031 18.960938 -9.160156 18.578125 -8.203125 C 18.191406 -7.253906 17.6875 -6.410156 17.0625 -5.671875 C 17.882812 -5.617188 18.707031 -5.578125 19.53125 -5.546875 C 20.363281 -5.523438 21.175781 -5.515625 21.96875 -5.515625 C 23 -5.515625 23.738281 -5.25 24.1875 -4.71875 C 24.632812 -4.1875 24.859375 -3.523438 24.859375 -2.734375 C 24.859375 -1.890625 24.570312 -1.1875 24 -0.625 C 23.4375 -0.0703125 22.625 0.203125 21.5625 0.203125 C 19.539062 0.203125 17.578125 0.0664062 15.671875 -0.203125 C 13.765625 -0.472656 12.109375 -0.867188 10.703125 -1.390625 C 9.691406 -0.953125 8.242188 -0.566406 6.359375 -0.234375 C 4.484375 0.0859375 2.363281 0.234375 0 0.203125 Z M 8.28125 -10.609375 C 8.28125 -9.929688 8.472656 -9.289062 8.859375 -8.6875 C 9.242188 -8.09375 9.773438 -7.535156 10.453125 -7.015625 C 11.429688 -7.453125 12.1875 -8 12.71875 -8.65625 C 13.25 -9.3125 13.515625 -10.019531 13.515625 -10.78125 C 13.515625 -11.507812 13.289062 -12.226562 12.84375 -12.9375 C 12.394531 -13.644531 11.773438 -14 10.984375 -14 C 10.222656 -14 9.582031 -13.671875 9.0625 -13.015625 C 8.539062 -12.367188 8.28125 -11.566406 8.28125 -10.609375 Z M 7.640625 -23.234375 C 6.847656 -23.234375 6.171875 -23.507812 5.609375 -24.0625 C 5.054688 -24.625 4.78125 -25.285156 4.78125 -26.046875 C 4.78125 -26.835938 5.054688 -27.519531 5.609375 -28.09375 C 6.171875 -28.664062 6.847656 -28.953125 7.640625 -28.953125 C 8.398438 -28.953125 9.050781 -28.664062 9.59375 -28.09375 C 10.144531 -27.519531 10.421875 -26.835938 10.421875 -26.046875 C 10.421875 -25.285156 10.144531 -24.625 9.59375 -24.0625 C 9.050781 -23.507812 8.398438 -23.234375 7.640625 -23.234375 Z M 14.703125 -23.1875 C 13.910156 -23.1875 13.234375 -23.457031 12.671875 -24 C 12.117188 -24.550781 11.84375 -25.222656 11.84375 -26.015625 C 11.84375 -26.796875 12.117188 -27.472656 12.671875 -28.046875 C 13.234375 -28.617188 13.910156 -28.90625 14.703125 -28.90625 C 15.460938 -28.90625 16.113281 -28.617188 16.65625 -28.046875 C 17.207031 -27.472656 17.484375 -26.796875 17.484375 -26.015625 C 17.484375 -25.222656 17.207031 -24.550781 16.65625 -24 C 16.113281 -23.457031 15.460938 -23.1875 14.703125 -23.1875 Z M 14.703125 -23.1875 "/></g></g></g><g fill="#ffffff" fill-opacity="1"><g transform="translate(125.72738, 50.566159)"><g><path d="M 0 0.203125 L 0.40625 -5.515625 C 1.65625 -5.515625 2.550781 -5.640625 3.09375 -5.890625 C 3.644531 -6.148438 3.972656 -6.640625 4.078125 -7.359375 C 4.191406 -8.085938 4.222656 -9.144531 4.171875 -10.53125 L 3.421875 -29.890625 L 9.1875 -29.890625 L 10 -10.125 C 10.050781 -8.539062 9.988281 -7.113281 9.8125 -5.84375 C 9.632812 -4.582031 9.210938 -3.503906 8.546875 -2.609375 C 7.878906 -1.710938 6.859375 -1.019531 5.484375 -0.53125 C 4.109375 -0.0390625 2.28125 0.203125 0 0.203125 Z M 5.3125 -34.421875 C 5.039062 -34.960938 4.671875 -35.675781 4.203125 -36.5625 C 3.742188 -37.445312 3.273438 -38.335938 2.796875 -39.234375 C 2.328125 -40.128906 1.898438 -40.863281 1.515625 -41.4375 L 3.890625 -42.703125 C 4.097656 -42.410156 4.363281 -41.976562 4.6875 -41.40625 C 5.019531 -40.832031 5.375 -40.203125 5.75 -39.515625 C 6.132812 -38.835938 6.476562 -38.210938 6.78125 -37.640625 C 7.082031 -38.328125 7.390625 -39.03125 7.703125 -39.75 C 8.015625 -40.46875 8.300781 -41.101562 8.5625 -41.65625 C 8.820312 -42.21875 9.019531 -42.609375 9.15625 -42.828125 L 11.515625 -41.84375 C 11.378906 -41.570312 11.164062 -41.128906 10.875 -40.515625 C 10.59375 -39.910156 10.28125 -39.234375 9.9375 -38.484375 C 9.601562 -37.734375 9.28125 -37.015625 8.96875 -36.328125 C 8.65625 -35.648438 8.414062 -35.097656 8.25 -34.671875 Z M 5.3125 -34.421875 "/></g></g></g><g fill="#ffffff" fill-opacity="1"><g transform="translate(137.853479, 50.566159)"><g><path d="M 3.265625 0 L 2.40625 -29.890625 L 8.125 -29.890625 L 8.984375 0 Z M 3.265625 0 "/></g></g></g></svg>