<svg xmlns="http://www.w3.org/2000/svg" xmlns:xlink="http://www.w3.org/1999/xlink" width="500" zoomAndPan="magnify" viewBox="0 0 375 71.249999" height="95" preserveAspectRatio="xMidYMid meet" version="1.0"><defs><g/><clipPath id="701db1872d"><path d="M 169.742188 19.175781 L 202.21875 19.175781 L 202.21875 52.03125 L 169.742188 52.03125 Z M 169.742188 19.175781 " clip-rule="nonzero"/></clipPath></defs><g fill="#ffffff" fill-opacity="1"><g transform="translate(219.742936, 47.626354)"><g><path d="M 13.984375 0.6875 C 10.816406 0.6875 8.285156 0.367188 6.390625 -0.265625 C 4.503906 -0.898438 3.144531 -1.773438 2.3125 -2.890625 C 1.476562 -4.015625 1.0625 -5.296875 1.0625 -6.734375 C 1.0625 -7.765625 1.191406 -8.820312 1.453125 -9.90625 C 1.710938 -11 1.960938 -11.960938 2.203125 -12.796875 L 6.328125 -11.84375 C 6.179688 -11.226562 6.035156 -10.570312 5.890625 -9.875 C 5.742188 -9.1875 5.671875 -8.578125 5.671875 -8.046875 C 5.671875 -7.210938 5.960938 -6.488281 6.546875 -5.875 C 7.128906 -5.257812 8.09375 -4.78125 9.4375 -4.4375 C 10.78125 -4.09375 12.582031 -3.921875 14.84375 -3.921875 L 14.84375 -3.828125 L 14.875 -3.921875 C 16.457031 -3.921875 17.976562 -4 19.4375 -4.15625 C 20.90625 -4.3125 22.300781 -4.617188 23.625 -5.078125 C 24.957031 -5.535156 26.203125 -6.21875 27.359375 -7.125 C 28.515625 -8.03125 29.578125 -9.238281 30.546875 -10.75 L 34.234375 -9.078125 C 34.109375 -8.648438 34 -8.238281 33.90625 -7.84375 C 33.820312 -7.445312 33.78125 -7.140625 33.78125 -6.921875 C 33.78125 -6.148438 34.078125 -5.546875 34.671875 -5.109375 C 35.265625 -4.671875 36.375 -4.453125 38 -4.453125 C 38.832031 -4.453125 39.425781 -4.238281 39.78125 -3.8125 C 40.132812 -3.382812 40.3125 -2.847656 40.3125 -2.203125 C 40.3125 -1.523438 40.082031 -0.957031 39.625 -0.5 C 39.175781 -0.0507812 38.523438 0.171875 37.671875 0.171875 C 35.691406 0.171875 34.066406 -0.171875 32.796875 -0.859375 C 31.535156 -1.554688 30.695312 -2.476562 30.28125 -3.625 C 28.582031 -2.132812 26.320312 -1.039062 23.5 -0.34375 C 20.675781 0.34375 17.515625 0.6875 14.015625 0.6875 L 14.015625 0.65625 Z M 17.484375 -18.796875 C 16.910156 -18.796875 16.425781 -19.003906 16.03125 -19.421875 C 15.632812 -19.835938 15.4375 -20.332031 15.4375 -20.90625 C 15.4375 -21.476562 15.632812 -21.960938 16.03125 -22.359375 C 16.425781 -22.753906 16.910156 -22.953125 17.484375 -22.953125 C 18.054688 -22.953125 18.539062 -22.753906 18.9375 -22.359375 C 19.332031 -21.960938 19.53125 -21.476562 19.53125 -20.90625 C 19.53125 -20.332031 19.332031 -19.835938 18.9375 -19.421875 C 18.539062 -19.003906 18.054688 -18.796875 17.484375 -18.796875 Z M 14.84375 -14.4375 C 14.269531 -14.4375 13.785156 -14.644531 13.390625 -15.0625 C 12.992188 -15.488281 12.796875 -15.984375 12.796875 -16.546875 C 12.796875 -17.117188 12.992188 -17.601562 13.390625 -18 C 13.785156 -18.394531 14.269531 -18.59375 14.84375 -18.59375 C 15.414062 -18.59375 15.898438 -18.394531 16.296875 -18 C 16.691406 -17.601562 16.890625 -17.117188 16.890625 -16.546875 C 16.890625 -15.984375 16.691406 -15.488281 16.296875 -15.0625 C 15.898438 -14.644531 15.414062 -14.4375 14.84375 -14.4375 Z M 19.953125 -14.4375 C 19.398438 -14.4375 18.921875 -14.644531 18.515625 -15.0625 C 18.109375 -15.488281 17.90625 -15.984375 17.90625 -16.546875 C 17.90625 -17.117188 18.109375 -17.601562 18.515625 -18 C 18.921875 -18.394531 19.398438 -18.59375 19.953125 -18.59375 C 20.523438 -18.59375 21.007812 -18.394531 21.40625 -18 C 21.800781 -17.601562 22 -17.117188 22 -16.546875 C 22 -15.984375 21.800781 -15.488281 21.40625 -15.0625 C 21.007812 -14.644531 20.523438 -14.4375 19.953125 -14.4375 Z M 19.953125 -14.4375 "/></g></g></g><g fill="#ffffff" fill-opacity="1"><g transform="translate(257.417459, 47.626354)"><g><path d="M 0 0.171875 L 0.328125 -4.453125 C 1.117188 -4.453125 1.800781 -4.53125 2.375 -4.6875 C 2.945312 -4.84375 3.429688 -5.15625 3.828125 -5.625 C 4.222656 -6.09375 4.554688 -6.789062 4.828125 -7.71875 C 5.109375 -8.644531 5.359375 -9.875 5.578125 -11.40625 L 9.890625 -10.6875 C 9.804688 -10.175781 9.707031 -9.566406 9.59375 -8.859375 C 9.488281 -8.160156 9.4375 -7.515625 9.4375 -6.921875 C 9.4375 -6.128906 9.765625 -5.519531 10.421875 -5.09375 C 11.078125 -4.664062 12.210938 -4.453125 13.828125 -4.453125 C 14.640625 -4.453125 15.222656 -4.238281 15.578125 -3.8125 C 15.941406 -3.382812 16.125 -2.847656 16.125 -2.203125 C 16.125 -1.523438 15.898438 -0.957031 15.453125 -0.5 C 15.003906 -0.0507812 14.347656 0.171875 13.484375 0.171875 C 11.953125 0.171875 10.640625 -0.0234375 9.546875 -0.421875 C 8.460938 -0.816406 7.664062 -1.523438 7.15625 -2.546875 C 6.5625 -1.753906 5.863281 -1.164062 5.0625 -0.78125 C 4.257812 -0.394531 3.421875 -0.140625 2.546875 -0.015625 C 1.679688 0.109375 0.832031 0.171875 0 0.171875 Z M 9.203125 7.828125 C 8.554688 7.828125 8.007812 7.601562 7.5625 7.15625 C 7.113281 6.71875 6.890625 6.179688 6.890625 5.546875 C 6.890625 4.910156 7.113281 4.359375 7.5625 3.890625 C 8.007812 3.429688 8.554688 3.203125 9.203125 3.203125 C 9.816406 3.203125 10.34375 3.429688 10.78125 3.890625 C 11.21875 4.359375 11.4375 4.910156 11.4375 5.546875 C 11.4375 6.179688 11.21875 6.71875 10.78125 7.15625 C 10.34375 7.601562 9.816406 7.828125 9.203125 7.828125 Z M 3.484375 7.828125 C 2.847656 7.828125 2.304688 7.601562 1.859375 7.15625 C 1.410156 6.71875 1.1875 6.179688 1.1875 5.546875 C 1.1875 4.910156 1.410156 4.359375 1.859375 3.890625 C 2.304688 3.429688 2.847656 3.203125 3.484375 3.203125 C 4.109375 3.203125 4.640625 3.429688 5.078125 3.890625 C 5.515625 4.359375 5.734375 4.910156 5.734375 5.546875 C 5.734375 6.179688 5.515625 6.71875 5.078125 7.15625 C 4.640625 7.601562 4.109375 7.828125 3.484375 7.828125 Z M 3.484375 7.828125 "/></g></g></g><g fill="#ffffff" fill-opacity="1"><g transform="translate(270.910351, 47.626354)"><g><path d="M -0.125 0.171875 L 0.203125 -4.453125 C 1.253906 -4.453125 2.234375 -4.5 3.140625 -4.59375 C 4.054688 -4.695312 4.898438 -4.835938 5.671875 -5.015625 C 5.210938 -5.546875 4.726562 -6.050781 4.21875 -6.53125 C 3.71875 -7.007812 3.269531 -7.414062 2.875 -7.75 C 2.757812 -7.84375 2.628906 -8.078125 2.484375 -8.453125 C 2.347656 -8.835938 2.222656 -9.238281 2.109375 -9.65625 C 2.003906 -10.082031 1.953125 -10.394531 1.953125 -10.59375 C 1.953125 -11.09375 2.1875 -11.628906 2.65625 -12.203125 C 3.125 -12.773438 3.757812 -13.304688 4.5625 -13.796875 C 5.363281 -14.296875 6.253906 -14.703125 7.234375 -15.015625 C 8.210938 -15.335938 9.207031 -15.5 10.21875 -15.5 C 12.25 -15.5 13.785156 -15.054688 14.828125 -14.171875 C 15.867188 -13.296875 16.390625 -12.144531 16.390625 -10.71875 C 16.390625 -9.726562 16.1875 -8.738281 15.78125 -7.75 C 15.375 -6.757812 14.765625 -5.828125 13.953125 -4.953125 C 14.628906 -4.796875 15.351562 -4.671875 16.125 -4.578125 C 16.894531 -4.492188 17.6875 -4.453125 18.5 -4.453125 C 19.3125 -4.453125 19.90625 -4.238281 20.28125 -3.8125 C 20.65625 -3.382812 20.84375 -2.847656 20.84375 -2.203125 C 20.84375 -1.523438 20.609375 -0.957031 20.140625 -0.5 C 19.679688 -0.0507812 19.023438 0.171875 18.171875 0.171875 C 16.304688 0.171875 14.65625 0.0078125 13.21875 -0.3125 C 11.789062 -0.632812 10.519531 -1.09375 9.40625 -1.6875 C 8.144531 -1.113281 6.71875 -0.660156 5.125 -0.328125 C 3.53125 0.00390625 1.78125 0.171875 -0.125 0.171875 Z M 6.234375 -10.65625 C 6.785156 -10.21875 7.40625 -9.65625 8.09375 -8.96875 C 8.789062 -8.289062 9.4375 -7.597656 10.03125 -6.890625 C 11.238281 -7.796875 11.84375 -8.773438 11.84375 -9.828125 C 11.84375 -10.265625 11.675781 -10.65625 11.34375 -11 C 11.019531 -11.34375 10.425781 -11.515625 9.5625 -11.515625 C 9.125 -11.515625 8.585938 -11.441406 7.953125 -11.296875 C 7.316406 -11.148438 6.742188 -10.9375 6.234375 -10.65625 Z M 9.859375 -18.5625 C 9.179688 -18.5625 8.601562 -18.789062 8.125 -19.25 C 7.65625 -19.71875 7.421875 -20.289062 7.421875 -20.96875 C 7.421875 -21.65625 7.65625 -22.238281 8.125 -22.71875 C 8.601562 -23.207031 9.179688 -23.453125 9.859375 -23.453125 C 10.515625 -23.453125 11.078125 -23.207031 11.546875 -22.71875 C 12.023438 -22.238281 12.265625 -21.65625 12.265625 -20.96875 C 12.265625 -20.289062 12.023438 -19.71875 11.546875 -19.25 C 11.078125 -18.789062 10.515625 -18.5625 9.859375 -18.5625 Z M 9.859375 -18.5625 "/></g></g></g><g fill="#ffffff" fill-opacity="1"><g transform="translate(289.120801, 47.626354)"><g><path d="M 0 0.171875 L 0.328125 -4.453125 C 1.117188 -4.453125 1.800781 -4.53125 2.375 -4.6875 C 2.945312 -4.84375 3.429688 -5.15625 3.828125 -5.625 C 4.222656 -6.09375 4.554688 -6.789062 4.828125 -7.71875 C 5.109375 -8.644531 5.359375 -9.875 5.578125 -11.40625 L 9.890625 -10.6875 C 9.804688 -10.175781 9.707031 -9.566406 9.59375 -8.859375 C 9.488281 -8.160156 9.4375 -7.515625 9.4375 -6.921875 C 9.4375 -6.128906 9.765625 -5.519531 10.421875 -5.09375 C 11.078125 -4.664062 12.210938 -4.453125 13.828125 -4.453125 C 14.640625 -4.453125 15.222656 -4.238281 15.578125 -3.8125 C 15.941406 -3.382812 16.125 -2.847656 16.125 -2.203125 C 16.125 -1.523438 15.898438 -0.957031 15.453125 -0.5 C 15.003906 -0.0507812 14.347656 0.171875 13.484375 0.171875 C 11.953125 0.171875 10.640625 -0.0234375 9.546875 -0.421875 C 8.460938 -0.816406 7.664062 -1.523438 7.15625 -2.546875 C 6.5625 -1.753906 5.863281 -1.164062 5.0625 -0.78125 C 4.257812 -0.394531 3.421875 -0.140625 2.546875 -0.015625 C 1.679688 0.109375 0.832031 0.171875 0 0.171875 Z M 4.890625 -14.40625 C 4.253906 -14.40625 3.707031 -14.628906 3.25 -15.078125 C 2.800781 -15.535156 2.578125 -16.070312 2.578125 -16.6875 C 2.578125 -17.320312 2.800781 -17.867188 3.25 -18.328125 C 3.707031 -18.796875 4.253906 -19.03125 4.890625 -19.03125 C 5.503906 -19.03125 6.03125 -18.796875 6.46875 -18.328125 C 6.90625 -17.867188 7.125 -17.320312 7.125 -16.6875 C 7.125 -16.070312 6.90625 -15.535156 6.46875 -15.078125 C 6.03125 -14.628906 5.503906 -14.40625 4.890625 -14.40625 Z M 10.59375 -14.375 C 9.957031 -14.375 9.410156 -14.59375 8.953125 -15.03125 C 8.503906 -15.476562 8.28125 -16.019531 8.28125 -16.65625 C 8.28125 -17.289062 8.503906 -17.835938 8.953125 -18.296875 C 9.410156 -18.765625 9.957031 -19 10.59375 -19 C 11.207031 -19 11.734375 -18.765625 12.171875 -18.296875 C 12.617188 -17.835938 12.84375 -17.289062 12.84375 -16.65625 C 12.84375 -16.019531 12.617188 -15.476562 12.171875 -15.03125 C 11.734375 -14.59375 11.207031 -14.375 10.59375 -14.375 Z M 10.59375 -14.375 "/></g></g></g><g fill="#ffffff" fill-opacity="1"><g transform="translate(302.613694, 47.626354)"><g><path d="M 0 0.171875 L 0.328125 -4.453125 C 1.054688 -4.453125 1.648438 -4.507812 2.109375 -4.625 C 2.566406 -4.75 2.941406 -5.023438 3.234375 -5.453125 C 3.535156 -5.890625 3.800781 -6.539062 4.03125 -7.40625 C 4.269531 -8.269531 4.53125 -9.453125 4.8125 -10.953125 L 9.109375 -10.15625 C 9.015625 -9.675781 8.894531 -9.070312 8.75 -8.34375 C 8.613281 -7.613281 8.546875 -6.988281 8.546875 -6.46875 C 8.546875 -5.851562 8.738281 -5.363281 9.125 -5 C 9.507812 -4.632812 10.25 -4.453125 11.34375 -4.453125 C 11.914062 -4.453125 12.40625 -4.507812 12.8125 -4.625 C 13.21875 -4.75 13.566406 -5.023438 13.859375 -5.453125 C 14.160156 -5.890625 14.425781 -6.5625 14.65625 -7.46875 C 14.894531 -8.382812 15.125 -9.625 15.34375 -11.1875 L 19.6875 -10.484375 C 19.5625 -9.710938 19.429688 -8.898438 19.296875 -8.046875 C 19.160156 -7.191406 19.09375 -6.546875 19.09375 -6.109375 C 19.09375 -5.660156 19.296875 -5.269531 19.703125 -4.9375 C 20.109375 -4.613281 20.929688 -4.453125 22.171875 -4.453125 C 24.097656 -4.453125 25.0625 -5.320312 25.0625 -7.0625 C 25.0625 -7.8125 25.035156 -8.660156 24.984375 -9.609375 C 24.929688 -10.566406 24.816406 -11.757812 24.640625 -13.1875 L 28.890625 -13.53125 C 29.046875 -11.632812 29.222656 -10.09375 29.421875 -8.90625 C 29.617188 -7.71875 29.882812 -6.796875 30.21875 -6.140625 C 30.5625 -5.492188 31.023438 -5.050781 31.609375 -4.8125 C 32.191406 -4.570312 32.957031 -4.453125 33.90625 -4.453125 C 34.738281 -4.453125 35.335938 -4.238281 35.703125 -3.8125 C 36.066406 -3.382812 36.25 -2.847656 36.25 -2.203125 C 36.25 -1.523438 36.019531 -0.957031 35.5625 -0.5 C 35.113281 -0.0507812 34.453125 0.171875 33.578125 0.171875 C 32.847656 0.171875 32.097656 0.09375 31.328125 -0.0625 C 30.566406 -0.21875 29.847656 -0.535156 29.171875 -1.015625 C 28.503906 -1.503906 27.960938 -2.234375 27.546875 -3.203125 C 27.054688 -1.859375 26.347656 -0.957031 25.421875 -0.5 C 24.503906 -0.0507812 23.304688 0.171875 21.828125 0.171875 C 20.671875 0.171875 19.660156 -0.0078125 18.796875 -0.375 C 17.941406 -0.738281 17.335938 -1.363281 16.984375 -2.25 C 16.566406 -1.539062 16.09375 -1.015625 15.5625 -0.671875 C 15.039062 -0.335938 14.414062 -0.113281 13.6875 0 C 12.957031 0.113281 12.097656 0.171875 11.109375 0.171875 C 10.515625 0.171875 9.925781 0.125 9.34375 0.03125 C 8.769531 -0.0507812 8.222656 -0.253906 7.703125 -0.578125 C 7.179688 -0.898438 6.75 -1.410156 6.40625 -2.109375 C 5.65625 -1.117188 4.738281 -0.488281 3.65625 -0.21875 C 2.582031 0.0390625 1.363281 0.171875 0 0.171875 Z M 0 0.171875 "/></g></g></g><g fill="#ffffff" fill-opacity="1"><g transform="translate(336.230448, 47.626354)"><g><path d="M 0 0.171875 L 0.328125 -4.453125 C 1.648438 -4.453125 2.660156 -4.515625 3.359375 -4.640625 C 4.066406 -4.773438 4.554688 -5.023438 4.828125 -5.390625 C 5.109375 -5.753906 5.25 -6.273438 5.25 -6.953125 C 5.25 -7.578125 5.164062 -8.316406 5 -9.171875 C 4.832031 -10.023438 4.613281 -10.90625 4.34375 -11.8125 C 4.082031 -12.726562 3.820312 -13.582031 3.5625 -14.375 L 8.109375 -15.640625 C 8.378906 -14.890625 8.648438 -14.019531 8.921875 -13.03125 C 9.191406 -12.039062 9.414062 -11.015625 9.59375 -9.953125 C 9.769531 -8.898438 9.859375 -7.898438 9.859375 -6.953125 C 9.859375 -5.460938 9.613281 -4.25 9.125 -3.3125 C 8.644531 -2.375 7.972656 -1.648438 7.109375 -1.140625 C 6.242188 -0.640625 5.203125 -0.296875 3.984375 -0.109375 C 2.773438 0.078125 1.445312 0.171875 0 0.171875 Z M 3.234375 -18.328125 C 2.597656 -18.328125 2.050781 -18.550781 1.59375 -19 C 1.144531 -19.457031 0.921875 -19.992188 0.921875 -20.609375 C 0.921875 -21.242188 1.144531 -21.789062 1.59375 -22.25 C 2.050781 -22.71875 2.597656 -22.953125 3.234375 -22.953125 C 3.847656 -22.953125 4.375 -22.71875 4.8125 -22.25 C 5.25 -21.789062 5.46875 -21.242188 5.46875 -20.609375 C 5.46875 -19.992188 5.25 -19.457031 4.8125 -19 C 4.375 -18.550781 3.847656 -18.328125 3.234375 -18.328125 Z M 8.9375 -18.296875 C 8.300781 -18.296875 7.753906 -18.515625 7.296875 -18.953125 C 6.847656 -19.398438 6.625 -19.941406 6.625 -20.578125 C 6.625 -21.210938 6.847656 -21.757812 7.296875 -22.21875 C 7.753906 -22.6875 8.300781 -22.921875 8.9375 -22.921875 C 9.550781 -22.921875 10.078125 -22.6875 10.515625 -22.21875 C 10.960938 -21.757812 11.1875 -21.210938 11.1875 -20.578125 C 11.1875 -19.941406 10.960938 -19.398438 10.515625 -18.953125 C 10.078125 -18.515625 9.550781 -18.296875 8.9375 -18.296875 Z M 8.9375 -18.296875 "/></g></g></g><g fill="#ffffff" fill-opacity="1"><g transform="translate(26.92179, 47.626354)"><g><path d="M 13.984375 0.6875 C 10.816406 0.6875 8.285156 0.367188 6.390625 -0.265625 C 4.503906 -0.898438 3.144531 -1.773438 2.3125 -2.890625 C 1.476562 -4.015625 1.0625 -5.296875 1.0625 -6.734375 C 1.0625 -7.765625 1.191406 -8.820312 1.453125 -9.90625 C 1.710938 -11 1.960938 -11.960938 2.203125 -12.796875 L 6.328125 -11.84375 C 6.179688 -11.226562 6.035156 -10.570312 5.890625 -9.875 C 5.742188 -9.1875 5.671875 -8.578125 5.671875 -8.046875 C 5.671875 -7.210938 5.960938 -6.488281 6.546875 -5.875 C 7.128906 -5.257812 8.09375 -4.78125 9.4375 -4.4375 C 10.78125 -4.09375 12.582031 -3.921875 14.84375 -3.921875 L 14.84375 -3.828125 L 14.875 -3.921875 C 16.457031 -3.921875 17.976562 -4 19.4375 -4.15625 C 20.90625 -4.3125 22.300781 -4.617188 23.625 -5.078125 C 24.957031 -5.535156 26.203125 -6.21875 27.359375 -7.125 C 28.515625 -8.03125 29.578125 -9.238281 30.546875 -10.75 L 34.234375 -9.078125 C 34.109375 -8.648438 34 -8.238281 33.90625 -7.84375 C 33.820312 -7.445312 33.78125 -7.140625 33.78125 -6.921875 C 33.78125 -6.148438 34.078125 -5.546875 34.671875 -5.109375 C 35.265625 -4.671875 36.375 -4.453125 38 -4.453125 C 38.832031 -4.453125 39.425781 -4.238281 39.78125 -3.8125 C 40.132812 -3.382812 40.3125 -2.847656 40.3125 -2.203125 C 40.3125 -1.523438 40.082031 -0.957031 39.625 -0.5 C 39.175781 -0.0507812 38.523438 0.171875 37.671875 0.171875 C 35.691406 0.171875 34.066406 -0.171875 32.796875 -0.859375 C 31.535156 -1.554688 30.695312 -2.476562 30.28125 -3.625 C 28.582031 -2.132812 26.320312 -1.039062 23.5 -0.34375 C 20.675781 0.34375 17.515625 0.6875 14.015625 0.6875 L 14.015625 0.65625 Z M 13.984375 0.6875 "/></g></g></g><g fill="#ffffff" fill-opacity="1"><g transform="translate(64.596314, 47.626354)"><g><path d="M 0 0.171875 L 0.328125 -4.453125 C 1.160156 -4.453125 1.820312 -4.53125 2.3125 -4.6875 C 2.8125 -4.84375 3.207031 -5.15625 3.5 -5.625 C 3.800781 -6.09375 4.054688 -6.789062 4.265625 -7.71875 C 4.472656 -8.644531 4.691406 -9.875 4.921875 -11.40625 L 9.234375 -10.6875 C 9.148438 -10.175781 9.050781 -9.566406 8.9375 -8.859375 C 8.832031 -8.160156 8.78125 -7.515625 8.78125 -6.921875 C 8.78125 -6.398438 8.894531 -5.953125 9.125 -5.578125 C 9.351562 -5.203125 9.769531 -4.921875 10.375 -4.734375 C 10.976562 -4.546875 11.851562 -4.453125 13 -4.453125 C 13.832031 -4.453125 14.425781 -4.238281 14.78125 -3.8125 C 15.132812 -3.382812 15.3125 -2.847656 15.3125 -2.203125 C 15.3125 -1.523438 15.082031 -0.957031 14.625 -0.5 C 14.175781 -0.0507812 13.523438 0.171875 12.671875 0.171875 C 10.910156 0.171875 9.539062 -0.015625 8.5625 -0.390625 C 7.582031 -0.765625 6.882812 -1.4375 6.46875 -2.40625 C 5.65625 -1.257812 4.691406 -0.539062 3.578125 -0.25 C 2.460938 0.03125 1.269531 0.171875 0 0.171875 Z M 0 0.171875 "/></g></g></g><g fill="#ffffff" fill-opacity="1"><g transform="translate(77.264454, 47.626354)"><g><path d="M -0.125 0.171875 L 0.203125 -4.453125 C 1.253906 -4.453125 2.234375 -4.5 3.140625 -4.59375 C 4.054688 -4.695312 4.898438 -4.835938 5.671875 -5.015625 C 5.210938 -5.546875 4.726562 -6.050781 4.21875 -6.53125 C 3.71875 -7.007812 3.269531 -7.414062 2.875 -7.75 C 2.757812 -7.84375 2.628906 -8.078125 2.484375 -8.453125 C 2.347656 -8.835938 2.222656 -9.238281 2.109375 -9.65625 C 2.003906 -10.082031 1.953125 -10.394531 1.953125 -10.59375 C 1.953125 -11.09375 2.1875 -11.628906 2.65625 -12.203125 C 3.125 -12.773438 3.757812 -13.304688 4.5625 -13.796875 C 5.363281 -14.296875 6.253906 -14.703125 7.234375 -15.015625 C 8.210938 -15.335938 9.207031 -15.5 10.21875 -15.5 C 12.25 -15.5 13.785156 -15.054688 14.828125 -14.171875 C 15.867188 -13.296875 16.390625 -12.144531 16.390625 -10.71875 C 16.390625 -9.726562 16.1875 -8.738281 15.78125 -7.75 C 15.375 -6.757812 14.765625 -5.828125 13.953125 -4.953125 C 14.628906 -4.796875 15.351562 -4.671875 16.125 -4.578125 C 16.894531 -4.492188 17.6875 -4.453125 18.5 -4.453125 C 19.3125 -4.453125 19.90625 -4.238281 20.28125 -3.8125 C 20.65625 -3.382812 20.84375 -2.847656 20.84375 -2.203125 C 20.84375 -1.523438 20.609375 -0.957031 20.140625 -0.5 C 19.679688 -0.0507812 19.023438 0.171875 18.171875 0.171875 C 16.304688 0.171875 14.65625 0.0078125 13.21875 -0.3125 C 11.789062 -0.632812 10.519531 -1.09375 9.40625 -1.6875 C 8.144531 -1.113281 6.71875 -0.660156 5.125 -0.328125 C 3.53125 0.00390625 1.78125 0.171875 -0.125 0.171875 Z M 6.234375 -10.65625 C 6.785156 -10.21875 7.40625 -9.65625 8.09375 -8.96875 C 8.789062 -8.289062 9.4375 -7.597656 10.03125 -6.890625 C 11.238281 -7.796875 11.84375 -8.773438 11.84375 -9.828125 C 11.84375 -10.265625 11.675781 -10.65625 11.34375 -11 C 11.019531 -11.34375 10.425781 -11.515625 9.5625 -11.515625 C 9.125 -11.515625 8.585938 -11.441406 7.953125 -11.296875 C 7.316406 -11.148438 6.742188 -10.9375 6.234375 -10.65625 Z M 6.234375 -10.65625 "/></g></g></g><g fill="#ffffff" fill-opacity="1"><g transform="translate(95.474904, 47.626354)"><g><path d="M 0 0.171875 L 0.328125 -4.453125 C 1.160156 -4.453125 1.820312 -4.53125 2.3125 -4.6875 C 2.8125 -4.84375 3.207031 -5.15625 3.5 -5.625 C 3.800781 -6.09375 4.054688 -6.789062 4.265625 -7.71875 C 4.472656 -8.644531 4.691406 -9.875 4.921875 -11.40625 L 9.234375 -10.6875 C 9.148438 -10.175781 9.050781 -9.566406 8.9375 -8.859375 C 8.832031 -8.160156 8.78125 -7.515625 8.78125 -6.921875 C 8.78125 -6.398438 8.894531 -5.953125 9.125 -5.578125 C 9.351562 -5.203125 9.769531 -4.921875 10.375 -4.734375 C 10.976562 -4.546875 11.851562 -4.453125 13 -4.453125 C 13.832031 -4.453125 14.425781 -4.238281 14.78125 -3.8125 C 15.132812 -3.382812 15.3125 -2.847656 15.3125 -2.203125 C 15.3125 -1.523438 15.082031 -0.957031 14.625 -0.5 C 14.175781 -0.0507812 13.523438 0.171875 12.671875 0.171875 C 10.910156 0.171875 9.539062 -0.015625 8.5625 -0.390625 C 7.582031 -0.765625 6.882812 -1.4375 6.46875 -2.40625 C 5.65625 -1.257812 4.691406 -0.539062 3.578125 -0.25 C 2.460938 0.03125 1.269531 0.171875 0 0.171875 Z M 0 0.171875 "/></g></g></g><g fill="#ffffff" fill-opacity="1"><g transform="translate(108.143045, 47.626354)"><g><path d="M 0 0.171875 L 0.328125 -4.453125 C 1.054688 -4.453125 1.648438 -4.507812 2.109375 -4.625 C 2.566406 -4.75 2.941406 -5.023438 3.234375 -5.453125 C 3.535156 -5.890625 3.800781 -6.539062 4.03125 -7.40625 C 4.269531 -8.269531 4.53125 -9.453125 4.8125 -10.953125 L 9.109375 -10.15625 C 9.015625 -9.675781 8.894531 -9.070312 8.75 -8.34375 C 8.613281 -7.613281 8.546875 -6.988281 8.546875 -6.46875 C 8.546875 -5.851562 8.738281 -5.363281 9.125 -5 C 9.507812 -4.632812 10.25 -4.453125 11.34375 -4.453125 C 11.914062 -4.453125 12.40625 -4.507812 12.8125 -4.625 C 13.21875 -4.75 13.566406 -5.023438 13.859375 -5.453125 C 14.160156 -5.890625 14.425781 -6.5625 14.65625 -7.46875 C 14.894531 -8.382812 15.125 -9.625 15.34375 -11.1875 L 19.6875 -10.484375 C 19.5625 -9.710938 19.429688 -8.898438 19.296875 -8.046875 C 19.160156 -7.191406 19.09375 -6.546875 19.09375 -6.109375 C 19.09375 -5.660156 19.296875 -5.269531 19.703125 -4.9375 C 20.109375 -4.613281 20.929688 -4.453125 22.171875 -4.453125 C 24.097656 -4.453125 25.0625 -5.320312 25.0625 -7.0625 C 25.0625 -7.8125 25.035156 -8.660156 24.984375 -9.609375 C 24.929688 -10.566406 24.816406 -11.757812 24.640625 -13.1875 L 28.890625 -13.53125 C 29.046875 -11.632812 29.222656 -10.09375 29.421875 -8.90625 C 29.617188 -7.71875 29.882812 -6.796875 30.21875 -6.140625 C 30.5625 -5.492188 31.023438 -5.050781 31.609375 -4.8125 C 32.191406 -4.570312 32.957031 -4.453125 33.90625 -4.453125 C 34.738281 -4.453125 35.335938 -4.238281 35.703125 -3.8125 C 36.066406 -3.382812 36.25 -2.847656 36.25 -2.203125 C 36.25 -1.523438 36.019531 -0.957031 35.5625 -0.5 C 35.113281 -0.0507812 34.453125 0.171875 33.578125 0.171875 C 32.847656 0.171875 32.097656 0.09375 31.328125 -0.0625 C 30.566406 -0.21875 29.847656 -0.535156 29.171875 -1.015625 C 28.503906 -1.503906 27.960938 -2.234375 27.546875 -3.203125 C 27.054688 -1.859375 26.347656 -0.957031 25.421875 -0.5 C 24.503906 -0.0507812 23.304688 0.171875 21.828125 0.171875 C 20.671875 0.171875 19.660156 -0.0078125 18.796875 -0.375 C 17.941406 -0.738281 17.335938 -1.363281 16.984375 -2.25 C 16.566406 -1.539062 16.09375 -1.015625 15.5625 -0.671875 C 15.039062 -0.335938 14.414062 -0.113281 13.6875 0 C 12.957031 0.113281 12.097656 0.171875 11.109375 0.171875 C 10.515625 0.171875 9.925781 0.125 9.34375 0.03125 C 8.769531 -0.0507812 8.222656 -0.253906 7.703125 -0.578125 C 7.179688 -0.898438 6.75 -1.410156 6.40625 -2.109375 C 5.65625 -1.117188 4.738281 -0.488281 3.65625 -0.21875 C 2.582031 0.0390625 1.363281 0.171875 0 0.171875 Z M 0 0.171875 "/></g></g></g><g fill="#ffffff" fill-opacity="1"><g transform="translate(141.759799, 47.626354)"><g><path d="M 0 0.171875 L 0.328125 -4.453125 C 1.753906 -4.453125 2.753906 -4.609375 3.328125 -4.921875 C 3.898438 -5.242188 4.1875 -5.921875 4.1875 -6.953125 C 4.1875 -7.578125 4.101562 -8.316406 3.9375 -9.171875 C 3.769531 -10.023438 3.554688 -10.90625 3.296875 -11.8125 C 3.035156 -12.726562 2.769531 -13.582031 2.5 -14.375 L 7.0625 -15.640625 C 7.320312 -14.890625 7.582031 -14.019531 7.84375 -13.03125 C 8.113281 -12.039062 8.34375 -11.015625 8.53125 -9.953125 C 8.71875 -8.898438 8.8125 -7.898438 8.8125 -6.953125 C 8.8125 -5.460938 8.578125 -4.25 8.109375 -3.3125 C 7.648438 -2.375 7.007812 -1.648438 6.1875 -1.140625 C 5.363281 -0.640625 4.421875 -0.296875 3.359375 -0.109375 C 2.304688 0.078125 1.1875 0.171875 0 0.171875 Z M 0 0.171875 "/></g></g></g><g clip-path="url(#701db1872d)"><path fill="#ffffff" d="M 169.886719 35.308594 C 169.742188 35.457031 169.742188 35.679688 169.886719 35.824219 L 185.082031 51.835938 C 185.15625 51.910156 185.226562 51.945312 185.332031 51.945312 L 187.617188 52.019531 C 187.722656 52.019531 187.796875 51.984375 187.867188 51.910156 C 187.9375 51.835938 187.972656 51.761719 187.972656 51.652344 L 187.972656 45.378906 C 187.972656 45.269531 187.9375 45.195312 187.867188 45.121094 L 178.664062 35.53125 L 187.9375 26.011719 C 188.007812 25.9375 188.042969 25.867188 188.042969 25.753906 L 188.042969 21.070312 C 188.042969 20.960938 187.972656 20.8125 187.867188 20.773438 L 185.582031 19.261719 C 185.476562 19.1875 185.371094 19.1875 185.261719 19.226562 C 185.226562 19.226562 185.15625 19.261719 185.121094 19.300781 Z M 202.242188 52.019531 L 199.925781 51.945312 C 199.816406 51.945312 199.746094 51.910156 199.675781 51.835938 L 184.476562 35.824219 C 184.335938 35.679688 184.335938 35.457031 184.476562 35.308594 L 199.675781 19.300781 C 199.710938 19.261719 199.746094 19.226562 199.816406 19.226562 C 199.925781 19.1875 200.066406 19.1875 200.136719 19.261719 L 202.421875 20.773438 C 202.527344 20.8125 202.601562 20.960938 202.601562 21.070312 L 202.601562 25.753906 C 202.601562 25.867188 202.5625 25.9375 202.492188 26.011719 L 193.289062 35.53125 L 202.492188 45.121094 C 202.5625 45.195312 202.601562 45.269531 202.601562 45.378906 L 202.601562 51.652344 C 202.601562 51.761719 202.5625 51.835938 202.492188 51.910156 C 202.421875 51.984375 202.351562 52.019531 202.242188 52.019531 Z M 202.242188 52.019531 " fill-opacity="1" fill-rule="nonzero"/></g></svg>