<svg xmlns="http://www.w3.org/2000/svg" xmlns:xlink="http://www.w3.org/1999/xlink" width="500" zoomAndPan="magnify" viewBox="0 0 375 71.249999" height="95" preserveAspectRatio="xMidYMid meet" version="1.0"><defs><g/><clipPath id="79696c030e"><path d="M 212.832031 16.933594 L 249.03125 16.933594 L 249.03125 53.960938 L 212.832031 53.960938 Z M 212.832031 16.933594 " clip-rule="nonzero"/></clipPath></defs><g fill="#ffffff" fill-opacity="1"><g transform="translate(270.947926, 50.057508)"><g><path d="M 16.734375 0.828125 C 12.941406 0.828125 9.914062 0.445312 7.65625 -0.3125 C 5.394531 -1.070312 3.765625 -2.125 2.765625 -3.46875 C 1.765625 -4.8125 1.265625 -6.335938 1.265625 -8.046875 C 1.265625 -9.285156 1.421875 -10.554688 1.734375 -11.859375 C 2.046875 -13.160156 2.347656 -14.3125 2.640625 -15.3125 L 7.578125 -14.171875 C 7.390625 -13.429688 7.207031 -12.644531 7.03125 -11.8125 C 6.863281 -10.988281 6.78125 -10.257812 6.78125 -9.625 C 6.78125 -8.625 7.128906 -7.753906 7.828125 -7.015625 C 8.523438 -6.285156 9.675781 -5.71875 11.28125 -5.3125 C 12.894531 -4.90625 15.054688 -4.703125 17.765625 -4.703125 L 17.765625 -4.578125 L 17.796875 -4.703125 C 22.898438 -4.703125 26.695312 -4.988281 29.1875 -5.5625 C 31.675781 -6.144531 32.921875 -7.160156 32.921875 -8.609375 C 32.921875 -9.554688 32.757812 -10.6875 32.4375 -12 C 32.125 -13.3125 31.71875 -14.664062 31.21875 -16.0625 L 36.390625 -17.5625 C 36.734375 -16.664062 37.0625 -15.6875 37.375 -14.625 C 37.6875 -13.5625 37.941406 -12.492188 38.140625 -11.421875 C 38.335938 -10.359375 38.4375 -9.367188 38.4375 -8.453125 C 38.4375 -6.816406 38.082031 -5.410156 37.375 -4.234375 C 36.664062 -3.066406 35.488281 -2.109375 33.84375 -1.359375 C 32.195312 -0.609375 29.976562 -0.0546875 27.1875 0.296875 C 24.40625 0.648438 20.9375 0.828125 16.78125 0.828125 L 16.78125 0.796875 Z M 19.765625 10.078125 C 19.003906 10.078125 18.351562 9.8125 17.8125 9.28125 C 17.28125 8.757812 17.015625 8.113281 17.015625 7.34375 C 17.015625 6.582031 17.28125 5.914062 17.8125 5.34375 C 18.351562 4.78125 19.003906 4.5 19.765625 4.5 C 20.503906 4.5 21.148438 4.78125 21.703125 5.34375 C 22.253906 5.914062 22.53125 6.582031 22.53125 7.34375 C 22.53125 8.113281 22.253906 8.757812 21.703125 9.28125 C 21.148438 9.8125 20.503906 10.078125 19.765625 10.078125 Z M 19.765625 10.078125 "/></g></g></g><g fill="#ffffff" fill-opacity="1"><g transform="translate(311.371629, 50.057508)"><g><path d="M 3.078125 0 L 2.328125 -26.125 L 7.859375 -26.125 L 8.609375 0 Z M 0.90625 -28.65625 L 0.234375 -31.421875 C 1.078125 -31.578125 1.75 -31.707031 2.25 -31.8125 C 1.78125 -32.15625 1.375 -32.601562 1.03125 -33.15625 C 0.6875 -33.707031 0.515625 -34.3125 0.515625 -34.96875 C 0.515625 -35.914062 0.722656 -36.675781 1.140625 -37.25 C 1.566406 -37.832031 2.109375 -38.253906 2.765625 -38.515625 C 3.421875 -38.785156 4.101562 -38.921875 4.8125 -38.921875 C 5.570312 -38.921875 6.269531 -38.8125 6.90625 -38.59375 L 6.59375 -35.765625 C 6.332031 -35.816406 6.066406 -35.867188 5.796875 -35.921875 C 5.535156 -35.972656 5.25 -36 4.9375 -36 C 4.5625 -36 4.242188 -35.882812 3.984375 -35.65625 C 3.722656 -35.4375 3.59375 -35.164062 3.59375 -34.84375 C 3.59375 -34.320312 3.804688 -33.867188 4.234375 -33.484375 C 4.671875 -33.109375 5.113281 -32.84375 5.5625 -32.6875 C 6.40625 -32.914062 7.179688 -33.175781 7.890625 -33.46875 L 8.6875 -30.828125 C 7.6875 -30.453125 6.46875 -30.0625 5.03125 -29.65625 C 3.59375 -29.25 2.21875 -28.914062 0.90625 -28.65625 Z M 0.90625 -28.65625 "/></g></g></g><g fill="#ffffff" fill-opacity="1"><g transform="translate(52.922325, 50.057508)"><g/></g></g><g fill="#ffffff" fill-opacity="1"><g transform="translate(62.240665, 50.057508)"><g><path d="M 2.125 2.25 L 0.359375 -2.921875 C 1.066406 -3.109375 1.804688 -3.3125 2.578125 -3.53125 C 3.359375 -3.757812 4.171875 -4.003906 5.015625 -4.265625 C 4.273438 -4.785156 3.613281 -5.539062 3.03125 -6.53125 C 2.457031 -7.519531 2.171875 -8.59375 2.171875 -9.75 C 2.171875 -11.195312 2.507812 -12.476562 3.1875 -13.59375 C 3.875 -14.71875 4.796875 -15.597656 5.953125 -16.234375 C 7.117188 -16.878906 8.394531 -17.203125 9.78125 -17.203125 C 10.519531 -17.203125 11.21875 -17.15625 11.875 -17.0625 C 12.53125 -16.976562 13.191406 -16.84375 13.859375 -16.65625 L 12.984375 -11.53125 C 12.515625 -11.632812 12.0625 -11.722656 11.625 -11.796875 C 11.1875 -11.878906 10.796875 -11.921875 10.453125 -11.921875 C 9.640625 -11.921875 8.976562 -11.671875 8.46875 -11.171875 C 7.957031 -10.671875 7.703125 -10.023438 7.703125 -9.234375 C 7.703125 -7.710938 8.539062 -6.632812 10.21875 -6 C 11.0625 -6.289062 11.90625 -6.597656 12.75 -6.921875 C 13.59375 -7.253906 14.445312 -7.59375 15.3125 -7.9375 L 17.359375 -2.875 C 16.304688 -2.457031 15.132812 -2.003906 13.84375 -1.515625 C 12.5625 -1.035156 11.222656 -0.554688 9.828125 -0.078125 C 8.429688 0.390625 7.070312 0.820312 5.75 1.21875 C 4.4375 1.613281 3.226562 1.957031 2.125 2.25 Z M 2.125 2.25 "/></g></g></g><g fill="#ffffff" fill-opacity="1"><g transform="translate(80.79451, 50.057508)"><g><path d="M 12.515625 0.203125 C 10.066406 0.203125 8.175781 -0.046875 6.84375 -0.546875 C 5.519531 -1.046875 4.585938 -1.828125 4.046875 -2.890625 C 3.503906 -3.960938 3.207031 -5.316406 3.15625 -6.953125 L 2.328125 -28.890625 L 7.859375 -28.890625 L 8.6875 -9.59375 C 8.738281 -8.382812 8.867188 -7.472656 9.078125 -6.859375 C 9.285156 -6.253906 9.675781 -5.847656 10.25 -5.640625 C 10.832031 -5.429688 11.71875 -5.328125 12.90625 -5.328125 C 13.875 -5.328125 14.582031 -5.066406 15.03125 -4.546875 C 15.476562 -4.035156 15.703125 -3.398438 15.703125 -2.640625 C 15.703125 -1.828125 15.425781 -1.148438 14.875 -0.609375 C 14.320312 -0.0664062 13.535156 0.203125 12.515625 0.203125 Z M 12.515625 0.203125 "/></g></g></g><g fill="#ffffff" fill-opacity="1"><g transform="translate(93.347965, 50.057508)"><g><path d="M 0 0.203125 L 0.390625 -5.328125 C 2.097656 -5.328125 3.296875 -5.515625 3.984375 -5.890625 C 4.671875 -6.273438 5.015625 -7.085938 5.015625 -8.328125 C 5.015625 -9.066406 4.914062 -9.945312 4.71875 -10.96875 C 4.519531 -12 4.257812 -13.054688 3.9375 -14.140625 C 3.625 -15.234375 3.3125 -16.253906 3 -17.203125 L 8.453125 -18.703125 C 8.765625 -17.804688 9.078125 -16.765625 9.390625 -15.578125 C 9.710938 -14.398438 9.984375 -13.179688 10.203125 -11.921875 C 10.421875 -10.660156 10.53125 -9.460938 10.53125 -8.328125 C 10.53125 -6.535156 10.253906 -5.082031 9.703125 -3.96875 C 9.148438 -2.851562 8.378906 -1.988281 7.390625 -1.375 C 6.410156 -0.769531 5.285156 -0.351562 4.015625 -0.125 C 2.753906 0.09375 1.414062 0.203125 0 0.203125 Z M 4.84375 9.28125 C 4.082031 9.28125 3.429688 9.015625 2.890625 8.484375 C 2.359375 7.960938 2.09375 7.316406 2.09375 6.546875 C 2.09375 5.785156 2.359375 5.117188 2.890625 4.546875 C 3.429688 3.984375 4.082031 3.703125 4.84375 3.703125 C 5.582031 3.703125 6.226562 3.984375 6.78125 4.546875 C 7.332031 5.117188 7.609375 5.785156 7.609375 6.546875 C 7.609375 7.316406 7.332031 7.960938 6.78125 8.484375 C 6.226562 9.015625 5.582031 9.28125 4.84375 9.28125 Z M 4.84375 9.28125 "/></g></g></g><g fill="#ffffff" fill-opacity="1"><g transform="translate(105.869441, 50.057508)"><g/></g><g transform="translate(115.17952, 50.057508)"><g/></g></g><g fill="#ffffff" fill-opacity="1"><g transform="translate(124.495107, 50.057508)"><g><path d="M 16.734375 0.828125 C 12.941406 0.828125 9.914062 0.445312 7.65625 -0.3125 C 5.394531 -1.070312 3.765625 -2.125 2.765625 -3.46875 C 1.765625 -4.8125 1.265625 -6.335938 1.265625 -8.046875 C 1.265625 -9.285156 1.421875 -10.554688 1.734375 -11.859375 C 2.046875 -13.160156 2.347656 -14.3125 2.640625 -15.3125 L 7.578125 -14.171875 C 7.390625 -13.429688 7.207031 -12.644531 7.03125 -11.8125 C 6.863281 -10.988281 6.78125 -10.257812 6.78125 -9.625 C 6.78125 -8.625 7.128906 -7.753906 7.828125 -7.015625 C 8.523438 -6.285156 9.675781 -5.71875 11.28125 -5.3125 C 12.894531 -4.90625 15.054688 -4.703125 17.765625 -4.703125 C 19.660156 -4.703125 21.460938 -4.765625 23.171875 -4.890625 C 24.878906 -5.023438 26.390625 -5.195312 27.703125 -5.40625 C 27.148438 -6.039062 26.675781 -6.742188 26.28125 -7.515625 C 25.882812 -8.296875 25.6875 -9.195312 25.6875 -10.21875 C 25.6875 -11.425781 25.929688 -12.550781 26.421875 -13.59375 C 26.910156 -14.632812 27.554688 -15.550781 28.359375 -16.34375 C 29.160156 -17.132812 30.039062 -17.742188 31 -18.171875 C 31.957031 -18.609375 32.910156 -18.828125 33.859375 -18.828125 C 35.390625 -18.828125 36.734375 -18.425781 37.890625 -17.625 C 39.046875 -16.820312 39.957031 -15.785156 40.625 -14.515625 C 41.300781 -13.253906 41.640625 -11.925781 41.640625 -10.53125 C 41.640625 -9.507812 41.46875 -8.578125 41.125 -7.734375 C 40.78125 -6.890625 40.332031 -6.140625 39.78125 -5.484375 C 40.539062 -5.429688 41.304688 -5.390625 42.078125 -5.359375 C 42.859375 -5.335938 43.617188 -5.328125 44.359375 -5.328125 C 45.359375 -5.328125 46.078125 -5.066406 46.515625 -4.546875 C 46.953125 -4.035156 47.171875 -3.398438 47.171875 -2.640625 C 47.171875 -1.828125 46.890625 -1.148438 46.328125 -0.609375 C 45.773438 -0.0664062 44.988281 0.203125 43.96875 0.203125 C 42.019531 0.203125 40.125 0.0703125 38.28125 -0.1875 C 36.4375 -0.457031 34.832031 -0.84375 33.46875 -1.34375 C 32.78125 -1.050781 31.832031 -0.773438 30.625 -0.515625 C 29.414062 -0.253906 28.046875 -0.0234375 26.515625 0.171875 C 24.992188 0.367188 23.390625 0.523438 21.703125 0.640625 C 20.023438 0.765625 18.367188 0.828125 16.734375 0.828125 Z M 31.140625 -10.109375 C 31.140625 -9.578125 31.320312 -9.007812 31.6875 -8.40625 C 32.0625 -7.800781 32.5625 -7.25 33.1875 -6.75 C 34.132812 -7.195312 34.867188 -7.734375 35.390625 -8.359375 C 35.921875 -8.992188 36.1875 -9.65625 36.1875 -10.34375 C 36.1875 -10.8125 36.070312 -11.296875 35.84375 -11.796875 C 35.625 -12.296875 35.332031 -12.707031 34.96875 -13.03125 C 34.601562 -13.363281 34.195312 -13.53125 33.75 -13.53125 C 33.09375 -13.53125 32.492188 -13.1875 31.953125 -12.5 C 31.410156 -11.820312 31.140625 -11.023438 31.140625 -10.109375 Z M 33.90625 -22.5 C 33.082031 -22.5 32.390625 -22.773438 31.828125 -23.328125 C 31.265625 -23.878906 30.984375 -24.566406 30.984375 -25.390625 C 30.984375 -26.203125 31.265625 -26.894531 31.828125 -27.46875 C 32.390625 -28.050781 33.082031 -28.34375 33.90625 -28.34375 C 34.6875 -28.34375 35.359375 -28.050781 35.921875 -27.46875 C 36.492188 -26.894531 36.78125 -26.203125 36.78125 -25.390625 C 36.78125 -24.566406 36.492188 -23.878906 35.921875 -23.328125 C 35.359375 -22.773438 34.6875 -22.5 33.90625 -22.5 Z M 33.90625 -22.5 "/></g></g></g><g fill="#ffffff" fill-opacity="1"><g transform="translate(168.511146, 50.057508)"><g><path d="M 0 0.203125 L 0.390625 -5.328125 C 1.597656 -5.328125 2.460938 -5.453125 2.984375 -5.703125 C 3.515625 -5.953125 3.832031 -6.425781 3.9375 -7.125 C 4.050781 -7.820312 4.082031 -8.84375 4.03125 -10.1875 L 3.3125 -28.890625 L 8.875 -28.890625 L 9.671875 -9.78125 C 9.722656 -8.257812 9.660156 -6.882812 9.484375 -5.65625 C 9.316406 -4.4375 8.910156 -3.390625 8.265625 -2.515625 C 7.617188 -1.648438 6.628906 -0.976562 5.296875 -0.5 C 3.972656 -0.03125 2.207031 0.203125 0 0.203125 Z M 0 0.203125 "/></g></g></g><g fill="#ffffff" fill-opacity="1"><g transform="translate(180.235603, 50.057508)"><g><path d="M 3.078125 0 L 2.328125 -26.125 L 7.859375 -26.125 L 8.609375 0 Z M 0.90625 -28.65625 L 0.234375 -31.421875 C 1.078125 -31.578125 1.75 -31.707031 2.25 -31.8125 C 1.78125 -32.15625 1.375 -32.601562 1.03125 -33.15625 C 0.6875 -33.707031 0.515625 -34.3125 0.515625 -34.96875 C 0.515625 -35.914062 0.722656 -36.675781 1.140625 -37.25 C 1.566406 -37.832031 2.109375 -38.253906 2.765625 -38.515625 C 3.421875 -38.785156 4.101562 -38.921875 4.8125 -38.921875 C 5.570312 -38.921875 6.269531 -38.8125 6.90625 -38.59375 L 6.59375 -35.765625 C 6.332031 -35.816406 6.066406 -35.867188 5.796875 -35.921875 C 5.535156 -35.972656 5.25 -36 4.9375 -36 C 4.5625 -36 4.242188 -35.882812 3.984375 -35.65625 C 3.722656 -35.4375 3.59375 -35.164062 3.59375 -34.84375 C 3.59375 -34.320312 3.804688 -33.867188 4.234375 -33.484375 C 4.671875 -33.109375 5.113281 -32.84375 5.5625 -32.6875 C 6.40625 -32.914062 7.179688 -33.175781 7.890625 -33.46875 L 8.6875 -30.828125 C 7.6875 -30.453125 6.46875 -30.0625 5.03125 -29.65625 C 3.59375 -29.25 2.21875 -28.914062 0.90625 -28.65625 Z M 0.90625 -28.65625 "/></g></g></g><g clip-path="url(#79696c030e)"><path fill="#ffffff" d="M 212.992188 35.113281 C 212.832031 35.28125 212.832031 35.527344 212.992188 35.695312 L 230.117188 53.71875 C 230.199219 53.804688 230.28125 53.84375 230.398438 53.84375 L 232.972656 53.929688 C 233.09375 53.929688 233.175781 53.886719 233.253906 53.804688 C 233.335938 53.71875 233.375 53.636719 233.375 53.511719 L 233.375 46.453125 C 233.375 46.328125 233.335938 46.246094 233.253906 46.160156 L 222.882812 35.363281 L 233.335938 24.648438 C 233.414062 24.566406 233.457031 24.480469 233.457031 24.355469 L 233.457031 19.082031 C 233.457031 18.957031 233.375 18.792969 233.253906 18.75 L 230.679688 17.046875 C 230.5625 16.964844 230.441406 16.964844 230.320312 17.003906 C 230.28125 17.003906 230.199219 17.046875 230.160156 17.089844 Z M 249.457031 53.929688 L 246.84375 53.84375 C 246.722656 53.84375 246.640625 53.804688 246.5625 53.71875 L 229.433594 35.695312 C 229.273438 35.527344 229.273438 35.28125 229.433594 35.113281 L 246.5625 17.089844 C 246.601562 17.046875 246.640625 17.003906 246.722656 17.003906 C 246.84375 16.964844 247.003906 16.964844 247.085938 17.046875 L 249.65625 18.75 C 249.777344 18.792969 249.859375 18.957031 249.859375 19.082031 L 249.859375 24.355469 C 249.859375 24.480469 249.816406 24.566406 249.738281 24.648438 L 239.367188 35.363281 L 249.738281 46.160156 C 249.816406 46.246094 249.859375 46.328125 249.859375 46.453125 L 249.859375 53.511719 C 249.859375 53.636719 249.816406 53.71875 249.738281 53.804688 C 249.65625 53.886719 249.578125 53.929688 249.457031 53.929688 Z M 249.457031 53.929688 " fill-opacity="1" fill-rule="nonzero"/></g></svg>